
<global>
ampeg_release=3.25
</global>

<group>
group_label=RR1
seq_length=8
seq_position=1

<region>
hivel=42
key=G3
lovel=0
offset=10457
sample=Basstrombone_staccatissimo_PP_G3_RR1.opus
tune=-13
</region>

<region>
hivel=42
key=G2
lovel=0
offset=10450
sample=Basstrombone_staccatissimo_PP_G2_RR1.opus
tune=-4
</region>

<region>
hivel=42
key=G1
lovel=0
offset=11669
sample=Basstrombone_staccatissimo_PP_G1_RR1.opus
tune=-8
</region>

<region>
hivel=42
key=G#3
lovel=0
offset=8723
sample=Basstrombone_staccatissimo_PP_G#3_RR1.opus
tune=-2
</region>

<region>
hivel=42
key=G#2
lovel=0
offset=12374
sample=Basstrombone_staccatissimo_PP_G#2_RR1.opus
tune=-13
</region>

<region>
hivel=42
key=G#1
lovel=0
offset=10366
sample=Basstrombone_staccatissimo_PP_G#1_RR1.opus
tune=-17
</region>

<region>
hivel=42
key=F3
lovel=0
offset=11236
sample=Basstrombone_staccatissimo_PP_F3_RR1.opus
tune=-20
</region>

<region>
hivel=42
key=F2
lovel=0
offset=12834
sample=Basstrombone_staccatissimo_PP_F2_RR1.opus
</region>

<region>
hivel=42
key=F1
lovel=0
offset=9027
sample=Basstrombone_staccatissimo_PP_F1_RR1.opus
tune=+18
</region>

<region>
hivel=42
key=F#3
lovel=0
offset=10491
sample=Basstrombone_staccatissimo_PP_F#3_RR1.opus
tune=-33
</region>

<region>
hivel=42
key=F#2
lovel=0
offset=10944
sample=Basstrombone_staccatissimo_PP_F#2_RR1.opus
tune=-10
</region>

<region>
hivel=42
key=F#1
lovel=0
offset=8923
sample=Basstrombone_staccatissimo_PP_F#1_RR1.opus
tune=+7
</region>

<region>
hivel=42
key=E3
lovel=0
offset=10585
sample=Basstrombone_staccatissimo_PP_E3_RR1.opus
tune=-25
</region>

<region>
hivel=42
key=E2
lovel=0
offset=9618
sample=Basstrombone_staccatissimo_PP_E2_RR1.opus
tune=+3
</region>

<region>
hikey=E1
hivel=42
lokey=A#0
lovel=0
offset=8615
pitch_keycenter=E1
sample=Basstrombone_staccatissimo_PP_E1_RR1.opus
tune=+31
</region>

<region>
hivel=42
key=D3
lovel=0
offset=9384
sample=Basstrombone_staccatissimo_PP_D3_RR1.opus
tune=-27
</region>

<region>
hivel=42
key=D2
lovel=0
offset=13123
sample=Basstrombone_staccatissimo_PP_D2_RR1.opus
tune=-15
</region>

<region>
hivel=42
key=D#3
lovel=0
offset=9129
sample=Basstrombone_staccatissimo_PP_D#3_RR1.opus
tune=-29
</region>

<region>
hivel=42
key=D#2
lovel=0
offset=12147
sample=Basstrombone_staccatissimo_PP_D#2_RR1.opus
tune=+17
</region>

<region>
hikey=D#5
hivel=42
lokey=C4
lovel=0
offset=11168
sample=Basstrombone_staccatissimo_PP_C4_RR1.opus
tune=-25
</region>

<region>
hivel=42
key=C3
lovel=0
offset=11479
sample=Basstrombone_staccatissimo_PP_C3_RR1.opus
tune=-11
</region>

<region>
hivel=42
key=C2
lovel=0
offset=9299
sample=Basstrombone_staccatissimo_PP_C2_RR1.opus
tune=-29
</region>

<region>
hivel=42
key=C#3
lovel=0
offset=9697
sample=Basstrombone_staccatissimo_PP_C#3_RR1.opus
tune=-18
</region>

<region>
hivel=42
key=C#2
lovel=0
offset=10969
sample=Basstrombone_staccatissimo_PP_C#2_RR1.opus
tune=-15
</region>

<region>
hivel=42
key=B3
lovel=0
offset=10752
sample=Basstrombone_staccatissimo_PP_B3_RR1.opus
tune=-22
</region>

<region>
hivel=42
key=B2
lovel=0
offset=9804
sample=Basstrombone_staccatissimo_PP_B2_RR1.opus
tune=-17
</region>

<region>
hivel=42
key=B1
lovel=0
offset=7622
sample=Basstrombone_staccatissimo_PP_B1_RR1.opus
tune=-27
</region>

<region>
hivel=42
key=A3
lovel=0
offset=9527
sample=Basstrombone_staccatissimo_PP_A3_RR1.opus
tune=-23
</region>

<region>
hivel=42
key=A2
lovel=0
offset=9760
sample=Basstrombone_staccatissimo_PP_A2_RR1.opus
tune=-20
</region>

<region>
hivel=42
key=A1
lovel=0
offset=10447
sample=Basstrombone_staccatissimo_PP_A1_RR1.opus
tune=-5
</region>

<region>
hivel=42
key=A#3
lovel=0
offset=9661
sample=Basstrombone_staccatissimo_PP_A#3_RR1.opus
tune=-14
</region>

<region>
hivel=42
key=A#2
lovel=0
offset=9730
sample=Basstrombone_staccatissimo_PP_A#2_RR1.opus
tune=-12
</region>

<region>
hivel=42
key=A#1
lovel=0
offset=11193
sample=Basstrombone_staccatissimo_PP_A#1_RR1.opus
tune=-16
</region>

<region>
hivel=84
key=G3
lovel=43
offset=6043
sample=Basstrombone_staccatissimo_MF_G3_RR1.opus
tune=-21
</region>

<region>
hivel=84
key=G2
lovel=43
offset=8241
sample=Basstrombone_staccatissimo_MF_G2_RR1.opus
tune=-11
</region>

<region>
hivel=84
key=G1
lovel=43
offset=8127
sample=Basstrombone_staccatissimo_MF_G1_RR1.opus
tune=-22
</region>

<region>
hivel=84
key=G#3
lovel=43
offset=6595
sample=Basstrombone_staccatissimo_MF_G#3_RR1.opus
tune=-14
</region>

<region>
hivel=84
key=G#2
lovel=43
offset=7339
sample=Basstrombone_staccatissimo_MF_G#2_RR1.opus
tune=-13
</region>

<region>
hivel=84
key=G#1
lovel=43
offset=7352
sample=Basstrombone_staccatissimo_MF_G#1_RR1.opus
tune=-12
</region>

<region>
hivel=84
key=F3
lovel=43
offset=6931
sample=Basstrombone_staccatissimo_MF_F3_RR1.opus
tune=-25
</region>

<region>
hivel=84
key=F2
lovel=43
offset=7469
sample=Basstrombone_staccatissimo_MF_F2_RR1.opus
tune=+7
</region>

<region>
hivel=84
key=F1
lovel=43
offset=8590
sample=Basstrombone_staccatissimo_MF_F1_RR1.opus
tune=-1
</region>

<region>
hivel=84
key=F#3
lovel=43
offset=7350
sample=Basstrombone_staccatissimo_MF_F#3_RR1.opus
tune=-25
</region>

<region>
hivel=84
key=F#2
lovel=43
offset=6664
sample=Basstrombone_staccatissimo_MF_F#2_RR1.opus
tune=-7
</region>

<region>
hivel=84
key=F#1
lovel=43
offset=5341
sample=Basstrombone_staccatissimo_MF_F#1_RR1.opus
tune=-15
</region>

<region>
hivel=84
key=E3
lovel=43
offset=7399
sample=Basstrombone_staccatissimo_MF_E3_RR1.opus
tune=-26
</region>

<region>
hivel=84
key=E2
lovel=43
offset=4858
sample=Basstrombone_staccatissimo_MF_E2_RR1.opus
tune=-1
</region>

<region>
hikey=E1
hivel=84
lokey=A#0
lovel=43
offset=4219
pitch_keycenter=E1
sample=Basstrombone_staccatissimo_MF_E1_RR1.opus
tune=-49
</region>

<region>
hivel=84
key=D3
lovel=43
offset=1605
sample=Basstrombone_staccatissimo_MF_D3_RR1.opus
tune=-19
</region>

<region>
hivel=84
key=D2
lovel=43
offset=6178
sample=Basstrombone_staccatissimo_MF_D2_RR1.opus
tune=-14
</region>

<region>
hivel=84
key=D#3
lovel=43
offset=5655
sample=Basstrombone_staccatissimo_MF_D#3_RR1.opus
tune=-20
</region>

<region>
hivel=84
key=D#2
lovel=43
offset=8481
sample=Basstrombone_staccatissimo_MF_D#2_RR1.opus
tune=-9
</region>

<region>
hikey=D#5
hivel=84
lokey=C4
lovel=43
offset=8659
sample=Basstrombone_staccatissimo_MF_C4_RR1.opus
tune=-5
</region>

<region>
hivel=84
key=C3
lovel=43
offset=6591
sample=Basstrombone_staccatissimo_MF_C3_RR1.opus
tune=-8
</region>

<region>
hivel=84
key=C2
lovel=43
offset=7233
sample=Basstrombone_staccatissimo_MF_C2_RR1.opus
tune=-9
</region>

<region>
hivel=84
key=C#3
lovel=43
offset=5712
sample=Basstrombone_staccatissimo_MF_C#3_RR1.opus
tune=-18
</region>

<region>
hivel=84
key=C#2
lovel=43
offset=7395
sample=Basstrombone_staccatissimo_MF_C#2_RR1.opus
tune=-17
</region>

<region>
hivel=84
key=B3
lovel=43
offset=7739
sample=Basstrombone_staccatissimo_MF_B3_RR1.opus
tune=-15
</region>

<region>
hivel=84
key=B2
lovel=43
offset=5684
sample=Basstrombone_staccatissimo_MF_B2_RR1.opus
tune=-30
</region>

<region>
hivel=84
key=B1
lovel=43
offset=3909
sample=Basstrombone_staccatissimo_MF_B1_RR1.opus
tune=-37
</region>

<region>
hivel=84
key=A3
lovel=43
offset=6400
sample=Basstrombone_staccatissimo_MF_A3_RR1.opus
tune=-25
</region>

<region>
hivel=84
key=A2
lovel=43
offset=5428
sample=Basstrombone_staccatissimo_MF_A2_RR1.opus
tune=-4
</region>

<region>
hivel=84
key=A1
lovel=43
offset=9448
sample=Basstrombone_staccatissimo_MF_A1_RR1.opus
tune=-21
</region>

<region>
hivel=84
key=A#3
lovel=43
offset=4442
sample=Basstrombone_staccatissimo_MF_A#3_RR1.opus
tune=-28
</region>

<region>
hivel=84
key=A#2
lovel=43
offset=6024
sample=Basstrombone_staccatissimo_MF_A#2_RR1.opus
tune=-14
</region>

<region>
hivel=84
key=A#1
lovel=43
offset=8418
sample=Basstrombone_staccatissimo_MF_A#1_RR1.opus
tune=-11
</region>

<region>
hivel=127
key=G3
lovel=85
offset=4404
sample=Basstrombone_staccatissimo_FF_G3_RR1.opus
tune=-23
</region>

<region>
hivel=127
key=G2
lovel=85
offset=3953
sample=Basstrombone_staccatissimo_FF_G2_RR1.opus
tune=-18
</region>

<region>
hivel=127
key=G1
lovel=85
offset=3399
sample=Basstrombone_staccatissimo_FF_G1_RR1.opus
tune=+12
</region>

<region>
hivel=127
key=G#3
lovel=85
offset=3837
sample=Basstrombone_staccatissimo_FF_G#3_RR1.opus
tune=-12
</region>

<region>
hivel=127
key=G#2
lovel=85
offset=3756
sample=Basstrombone_staccatissimo_FF_G#2_RR1.opus
tune=-24
</region>

<region>
hivel=127
key=G#1
lovel=85
offset=5432
sample=Basstrombone_staccatissimo_FF_G#1_RR1.opus
tune=-24
</region>

<region>
hivel=127
key=F3
lovel=85
offset=3709
sample=Basstrombone_staccatissimo_FF_F3_RR1.opus
tune=-18
</region>

<region>
hivel=127
key=F2
lovel=85
offset=3697
sample=Basstrombone_staccatissimo_FF_F2_RR1.opus
tune=-6
</region>

<region>
hivel=127
key=F1
lovel=85
offset=4098
sample=Basstrombone_staccatissimo_FF_F1_RR1.opus
tune=+9
</region>

<region>
hivel=127
key=F#3
lovel=85
offset=2796
sample=Basstrombone_staccatissimo_FF_F#3_RR1.opus
tune=-11
</region>

<region>
hivel=127
key=F#2
lovel=85
offset=5316
sample=Basstrombone_staccatissimo_FF_F#2_RR1.opus
tune=-22
</region>

<region>
hivel=127
key=F#1
lovel=85
offset=6493
sample=Basstrombone_staccatissimo_FF_F#1_RR1.opus
</region>

<region>
hivel=127
key=E3
lovel=85
offset=3902
sample=Basstrombone_staccatissimo_FF_E3_RR1.opus
tune=-25
</region>

<region>
hivel=127
key=E2
lovel=85
offset=3745
sample=Basstrombone_staccatissimo_FF_E2_RR1.opus
tune=-26
</region>

<region>
hikey=E1
hivel=127
lokey=A#0
lovel=85
offset=3652
pitch_keycenter=E1
sample=Basstrombone_staccatissimo_FF_E1_RR1.opus
tune=-58
</region>

<region>
hivel=127
key=D3
lovel=85
offset=2782
sample=Basstrombone_staccatissimo_FF_D3_RR1.opus
tune=-16
</region>

<region>
hivel=127
key=D2
lovel=85
offset=3978
sample=Basstrombone_staccatissimo_FF_D2_RR1.opus
tune=-6
</region>

<region>
hivel=127
key=D#3
lovel=85
offset=2023
sample=Basstrombone_staccatissimo_FF_D#3_RR1.opus
tune=-33
</region>

<region>
hivel=127
key=D#2
lovel=85
offset=1686
sample=Basstrombone_staccatissimo_FF_D#2_RR1.opus
tune=-9
</region>

<region>
hikey=D#5
hivel=127
lokey=C4
lovel=85
offset=4219
sample=Basstrombone_staccatissimo_FF_C4_RR1.opus
tune=-14
</region>

<region>
hivel=127
key=C3
lovel=85
offset=2530
sample=Basstrombone_staccatissimo_FF_C3_RR1.opus
tune=-12
</region>

<region>
hivel=127
key=C2
lovel=85
offset=2865
sample=Basstrombone_staccatissimo_FF_C2_RR1.opus
tune=-5
</region>

<region>
hivel=127
key=C#3
lovel=85
offset=3266
sample=Basstrombone_staccatissimo_FF_C#3_RR1.opus
tune=-18
</region>

<region>
hivel=127
key=C#2
lovel=85
offset=1864
sample=Basstrombone_staccatissimo_FF_C#2_RR1.opus
tune=-17
</region>

<region>
hivel=127
key=B3
lovel=85
offset=5531
sample=Basstrombone_staccatissimo_FF_B3_RR1.opus
tune=-18
</region>

<region>
hivel=127
key=B2
lovel=85
offset=3861
sample=Basstrombone_staccatissimo_FF_B2_RR1.opus
tune=-26
</region>

<region>
hivel=127
key=B1
lovel=85
offset=4437
sample=Basstrombone_staccatissimo_FF_B1_RR1.opus
tune=-10
</region>

<region>
hivel=127
key=A3
lovel=85
offset=3710
sample=Basstrombone_staccatissimo_FF_A3_RR1.opus
tune=-8
</region>

<region>
hivel=127
key=A2
lovel=85
offset=3134
sample=Basstrombone_staccatissimo_FF_A2_RR1.opus
tune=-22
</region>

<region>
hivel=127
key=A1
lovel=85
offset=5825
sample=Basstrombone_staccatissimo_FF_A1_RR1.opus
tune=+5
</region>

<region>
hivel=127
key=A#3
lovel=85
offset=3358
sample=Basstrombone_staccatissimo_FF_A#3_RR1.opus
tune=-14
</region>

<region>
hivel=127
key=A#2
lovel=85
offset=4425
sample=Basstrombone_staccatissimo_FF_A#2_RR1.opus
tune=-13
</region>

<region>
hivel=127
key=A#1
lovel=85
offset=5448
sample=Basstrombone_staccatissimo_FF_A#1_RR1.opus
tune=-8
</region>
</group>

<group>
group_label=RR2
seq_length=8
seq_position=2

<region>
hivel=42
key=G3
lovel=0
offset=9125
sample=Basstrombone_staccatissimo_PP_G3_RR2.opus
tune=-13
</region>

<region>
hivel=42
key=G2
lovel=0
offset=9091
sample=Basstrombone_staccatissimo_PP_G2_RR2.opus
tune=-14
</region>

<region>
hivel=42
key=G1
lovel=0
offset=7761
sample=Basstrombone_staccatissimo_PP_G1_RR2.opus
tune=-12
</region>

<region>
hivel=42
key=G#3
lovel=0
offset=8051
sample=Basstrombone_staccatissimo_PP_G#3_RR2.opus
tune=-4
</region>

<region>
hivel=42
key=G#2
lovel=0
offset=11349
sample=Basstrombone_staccatissimo_PP_G#2_RR2.opus
tune=-7
</region>

<region>
hivel=42
key=G#1
lovel=0
offset=10479
sample=Basstrombone_staccatissimo_PP_G#1_RR2.opus
tune=-13
</region>

<region>
hivel=42
key=F3
lovel=0
offset=10521
sample=Basstrombone_staccatissimo_PP_F3_RR2.opus
tune=-20
</region>

<region>
hivel=42
key=F2
lovel=0
offset=10662
sample=Basstrombone_staccatissimo_PP_F2_RR2.opus
tune=+12
</region>

<region>
hivel=42
key=F1
lovel=0
offset=9855
sample=Basstrombone_staccatissimo_PP_F1_RR2.opus
tune=+37
</region>

<region>
hivel=42
key=F#3
lovel=0
offset=11274
sample=Basstrombone_staccatissimo_PP_F#3_RR2.opus
tune=-18
</region>

<region>
hivel=42
key=F#2
lovel=0
offset=9138
sample=Basstrombone_staccatissimo_PP_F#2_RR2.opus
tune=+3
</region>

<region>
hivel=42
key=F#1
lovel=0
offset=9906
sample=Basstrombone_staccatissimo_PP_F#1_RR2.opus
tune=-27
</region>

<region>
hivel=42
key=E3
lovel=0
offset=10224
sample=Basstrombone_staccatissimo_PP_E3_RR2.opus
tune=-25
</region>

<region>
hivel=42
key=E2
lovel=0
offset=10517
sample=Basstrombone_staccatissimo_PP_E2_RR2.opus
tune=-3
</region>

<region>
hikey=E1
hivel=42
lokey=A#0
lovel=0
offset=8612
pitch_keycenter=E1
sample=Basstrombone_staccatissimo_PP_E1_RR2.opus
tune=+32
</region>

<region>
hivel=42
key=D3
lovel=0
offset=9325
sample=Basstrombone_staccatissimo_PP_D3_RR2.opus
tune=-18
</region>

<region>
hivel=42
key=D2
lovel=0
offset=10071
sample=Basstrombone_staccatissimo_PP_D2_RR2.opus
tune=-1
</region>

<region>
hivel=42
key=D#3
lovel=0
offset=10035
sample=Basstrombone_staccatissimo_PP_D#3_RR2.opus
tune=-29
</region>

<region>
hivel=42
key=D#2
lovel=0
offset=13205
sample=Basstrombone_staccatissimo_PP_D#2_RR2.opus
tune=+21
</region>

<region>
hikey=D#5
hivel=42
lokey=C4
lovel=0
offset=9651
sample=Basstrombone_staccatissimo_PP_C4_RR2.opus
tune=-34
</region>

<region>
hivel=42
key=C3
lovel=0
offset=9875
sample=Basstrombone_staccatissimo_PP_C3_RR2.opus
tune=-21
</region>

<region>
hivel=42
key=C2
lovel=0
offset=8897
sample=Basstrombone_staccatissimo_PP_C2_RR2.opus
tune=-15
</region>

<region>
hivel=42
key=C#3
lovel=0
offset=9413
sample=Basstrombone_staccatissimo_PP_C#3_RR2.opus
tune=-23
</region>

<region>
hivel=42
key=C#2
lovel=0
offset=11491
sample=Basstrombone_staccatissimo_PP_C#2_RR2.opus
tune=-12
</region>

<region>
hivel=42
key=B3
lovel=0
offset=9264
sample=Basstrombone_staccatissimo_PP_B3_RR2.opus
tune=-17
</region>

<region>
hivel=42
key=B2
lovel=0
offset=8651
sample=Basstrombone_staccatissimo_PP_B2_RR2.opus
tune=-10
</region>

<region>
hivel=42
key=B1
lovel=0
offset=7745
sample=Basstrombone_staccatissimo_PP_B1_RR2.opus
tune=-22
</region>

<region>
hivel=42
key=A3
lovel=0
offset=9531
sample=Basstrombone_staccatissimo_PP_A3_RR2.opus
tune=-10
</region>

<region>
hivel=42
key=A2
lovel=0
offset=12105
sample=Basstrombone_staccatissimo_PP_A2_RR2.opus
tune=-10
</region>

<region>
hivel=42
key=A1
lovel=0
offset=9899
sample=Basstrombone_staccatissimo_PP_A1_RR2.opus
tune=-5
</region>

<region>
hivel=42
key=A#3
lovel=0
offset=10429
sample=Basstrombone_staccatissimo_PP_A#3_RR2.opus
tune=-8
</region>

<region>
hivel=42
key=A#2
lovel=0
offset=9171
sample=Basstrombone_staccatissimo_PP_A#2_RR2.opus
tune=-9
</region>

<region>
hivel=42
key=A#1
lovel=0
offset=9944
sample=Basstrombone_staccatissimo_PP_A#1_RR2.opus
tune=-10
</region>

<region>
hivel=84
key=G3
lovel=43
offset=5241
sample=Basstrombone_staccatissimo_MF_G3_RR2.opus
tune=-25
</region>

<region>
hivel=84
key=G2
lovel=43
offset=7424
sample=Basstrombone_staccatissimo_MF_G2_RR2.opus
tune=-13
</region>

<region>
hivel=84
key=G1
lovel=43
offset=8066
sample=Basstrombone_staccatissimo_MF_G1_RR2.opus
tune=-1
</region>

<region>
hivel=84
key=G#3
lovel=43
offset=6649
sample=Basstrombone_staccatissimo_MF_G#3_RR2.opus
tune=-1
</region>

<region>
hivel=84
key=G#2
lovel=43
offset=6248
sample=Basstrombone_staccatissimo_MF_G#2_RR2.opus
tune=-16
</region>

<region>
hivel=84
key=G#1
lovel=43
offset=6704
sample=Basstrombone_staccatissimo_MF_G#1_RR2.opus
tune=-24
</region>

<region>
hivel=84
key=F3
lovel=43
offset=7427
sample=Basstrombone_staccatissimo_MF_F3_RR2.opus
tune=-18
</region>

<region>
hivel=84
key=F2
lovel=43
offset=9034
sample=Basstrombone_staccatissimo_MF_F2_RR2.opus
tune=+9
</region>

<region>
hivel=84
key=F1
lovel=43
offset=5651
sample=Basstrombone_staccatissimo_MF_F1_RR2.opus
tune=+3
</region>

<region>
hivel=84
key=F#3
lovel=43
offset=7168
sample=Basstrombone_staccatissimo_MF_F#3_RR2.opus
tune=-23
</region>

<region>
hivel=84
key=F#2
lovel=43
offset=6887
sample=Basstrombone_staccatissimo_MF_F#2_RR2.opus
tune=-8
</region>

<region>
hivel=84
key=F#1
lovel=43
offset=5775
sample=Basstrombone_staccatissimo_MF_F#1_RR2.opus
tune=-4
</region>

<region>
hivel=84
key=E3
lovel=43
offset=6227
sample=Basstrombone_staccatissimo_MF_E3_RR2.opus
tune=-14
</region>

<region>
hivel=84
key=E2
lovel=43
offset=4866
sample=Basstrombone_staccatissimo_MF_E2_RR2.opus
tune=+4
</region>

<region>
hikey=E1
hivel=84
lokey=A#0
lovel=43
offset=1602
pitch_keycenter=E1
sample=Basstrombone_staccatissimo_MF_E1_RR2.opus
tune=-2
</region>

<region>
hivel=84
key=D3
lovel=43
offset=1267
sample=Basstrombone_staccatissimo_MF_D3_RR2.opus
tune=-16
</region>

<region>
hivel=84
key=D2
lovel=43
offset=5728
sample=Basstrombone_staccatissimo_MF_D2_RR2.opus
tune=-10
</region>

<region>
hivel=84
key=D#3
lovel=43
offset=6408
sample=Basstrombone_staccatissimo_MF_D#3_RR2.opus
tune=-24
</region>

<region>
hivel=84
key=D#2
lovel=43
offset=7927
sample=Basstrombone_staccatissimo_MF_D#2_RR2.opus
tune=-2
</region>

<region>
hikey=D#5
hivel=84
lokey=C4
lovel=43
offset=7446
sample=Basstrombone_staccatissimo_MF_C4_RR2.opus
tune=-2
</region>

<region>
hivel=84
key=C3
lovel=43
offset=7833
sample=Basstrombone_staccatissimo_MF_C3_RR2.opus
tune=-9
</region>

<region>
hivel=84
key=C2
lovel=43
offset=3688
sample=Basstrombone_staccatissimo_MF_C2_RR2.opus
tune=-2
</region>

<region>
hivel=84
key=C#3
lovel=43
offset=6712
sample=Basstrombone_staccatissimo_MF_C#3_RR2.opus
tune=-24
</region>

<region>
hivel=84
key=C#2
lovel=43
offset=5642
sample=Basstrombone_staccatissimo_MF_C#2_RR2.opus
tune=-17
</region>

<region>
hivel=84
key=B3
lovel=43
offset=7287
sample=Basstrombone_staccatissimo_MF_B3_RR2.opus
tune=-14
</region>

<region>
hivel=84
key=B2
lovel=43
offset=5391
sample=Basstrombone_staccatissimo_MF_B2_RR2.opus
tune=-22
</region>

<region>
hivel=84
key=B1
lovel=43
offset=5524
sample=Basstrombone_staccatissimo_MF_B1_RR2.opus
tune=-30
</region>

<region>
hivel=84
key=A3
lovel=43
offset=6490
sample=Basstrombone_staccatissimo_MF_A3_RR2.opus
tune=-21
</region>

<region>
hivel=84
key=A2
lovel=43
offset=5379
sample=Basstrombone_staccatissimo_MF_A2_RR2.opus
tune=-17
</region>

<region>
hivel=84
key=A1
lovel=43
offset=8455
sample=Basstrombone_staccatissimo_MF_A1_RR2.opus
tune=-25
</region>

<region>
hivel=84
key=A#3
lovel=43
offset=5763
sample=Basstrombone_staccatissimo_MF_A#3_RR2.opus
tune=-15
</region>

<region>
hivel=84
key=A#2
lovel=43
offset=6199
sample=Basstrombone_staccatissimo_MF_A#2_RR2.opus
tune=-10
</region>

<region>
hivel=84
key=A#1
lovel=43
offset=6496
sample=Basstrombone_staccatissimo_MF_A#1_RR2.opus
tune=-21
</region>

<region>
hivel=127
key=G3
lovel=85
offset=2510
sample=Basstrombone_staccatissimo_FF_G3_RR2.opus
tune=-6
</region>

<region>
hivel=127
key=G2
lovel=85
offset=4633
sample=Basstrombone_staccatissimo_FF_G2_RR2.opus
tune=-20
</region>

<region>
hivel=127
key=G1
lovel=85
offset=2004
sample=Basstrombone_staccatissimo_FF_G1_RR2.opus
tune=-20
</region>

<region>
hivel=127
key=G#3
lovel=85
offset=3311
sample=Basstrombone_staccatissimo_FF_G#3_RR2.opus
tune=-7
</region>

<region>
hivel=127
key=G#2
lovel=85
offset=3044
sample=Basstrombone_staccatissimo_FF_G#2_RR2.opus
tune=-13
</region>

<region>
hivel=127
key=G#1
lovel=85
offset=3866
sample=Basstrombone_staccatissimo_FF_G#1_RR2.opus
tune=-34
</region>

<region>
hivel=127
key=F3
lovel=85
offset=3324
sample=Basstrombone_staccatissimo_FF_F3_RR2.opus
tune=-7
</region>

<region>
hivel=127
key=F2
lovel=85
offset=2323
sample=Basstrombone_staccatissimo_FF_F2_RR2.opus
tune=-3
</region>

<region>
hivel=127
key=F1
lovel=85
offset=2796
sample=Basstrombone_staccatissimo_FF_F1_RR2.opus
tune=+2
</region>

<region>
hivel=127
key=F#3
lovel=85
offset=1648
sample=Basstrombone_staccatissimo_FF_F#3_RR2.opus
tune=-7
</region>

<region>
hivel=127
key=F#2
lovel=85
offset=1892
sample=Basstrombone_staccatissimo_FF_F#2_RR2.opus
tune=-11
</region>

<region>
hivel=127
key=F#1
lovel=85
offset=2655
sample=Basstrombone_staccatissimo_FF_F#1_RR2.opus
tune=-12
</region>

<region>
hivel=127
key=E3
lovel=85
offset=2776
sample=Basstrombone_staccatissimo_FF_E3_RR2.opus
tune=-9
</region>

<region>
hivel=127
key=E2
lovel=85
offset=3209
sample=Basstrombone_staccatissimo_FF_E2_RR2.opus
tune=-24
</region>

<region>
hikey=E1
hivel=127
lokey=A#0
lovel=85
offset=2268
pitch_keycenter=E1
sample=Basstrombone_staccatissimo_FF_E1_RR2.opus
tune=-23
</region>

<region>
hivel=127
key=D3
lovel=85
offset=2173
sample=Basstrombone_staccatissimo_FF_D3_RR2.opus
tune=-12
</region>

<region>
hivel=127
key=D2
lovel=85
offset=3960
sample=Basstrombone_staccatissimo_FF_D2_RR2.opus
tune=-20
</region>

<region>
hivel=127
key=D#3
lovel=85
offset=2907
sample=Basstrombone_staccatissimo_FF_D#3_RR2.opus
tune=-24
</region>

<region>
hivel=127
key=D#2
lovel=85
offset=1887
sample=Basstrombone_staccatissimo_FF_D#2_RR2.opus
tune=-5
</region>

<region>
hikey=D#5
hivel=127
lokey=C4
lovel=85
offset=2765
sample=Basstrombone_staccatissimo_FF_C4_RR2.opus
tune=-6
</region>

<region>
hivel=127
key=C3
lovel=85
offset=1579
sample=Basstrombone_staccatissimo_FF_C3_RR2.opus
tune=-11
</region>

<region>
hivel=127
key=C2
lovel=85
offset=2666
sample=Basstrombone_staccatissimo_FF_C2_RR2.opus
tune=-8
</region>

<region>
hivel=127
key=C#3
lovel=85
offset=1597
sample=Basstrombone_staccatissimo_FF_C#3_RR2.opus
tune=-26
</region>

<region>
hivel=127
key=C#2
lovel=85
offset=1636
sample=Basstrombone_staccatissimo_FF_C#2_RR2.opus
tune=-19
</region>

<region>
hivel=127
key=B3
lovel=85
offset=3685
sample=Basstrombone_staccatissimo_FF_B3_RR2.opus
tune=-16
</region>

<region>
hivel=127
key=B2
lovel=85
offset=3315
sample=Basstrombone_staccatissimo_FF_B2_RR2.opus
tune=-24
</region>

<region>
hivel=127
key=B1
lovel=85
offset=2019
sample=Basstrombone_staccatissimo_FF_B1_RR2.opus
tune=-6
</region>

<region>
hivel=127
key=A3
lovel=85
offset=2558
sample=Basstrombone_staccatissimo_FF_A3_RR2.opus
tune=-25
</region>

<region>
hivel=127
key=A2
lovel=85
offset=2419
sample=Basstrombone_staccatissimo_FF_A2_RR2.opus
tune=-15
</region>

<region>
hivel=127
key=A1
lovel=85
offset=2118
sample=Basstrombone_staccatissimo_FF_A1_RR2.opus
tune=-15
</region>

<region>
hivel=127
key=A#3
lovel=85
offset=2439
sample=Basstrombone_staccatissimo_FF_A#3_RR2.opus
tune=-8
</region>

<region>
hivel=127
key=A#2
lovel=85
offset=3597
sample=Basstrombone_staccatissimo_FF_A#2_RR2.opus
tune=-14
</region>

<region>
hivel=127
key=A#1
lovel=85
offset=4952
sample=Basstrombone_staccatissimo_FF_A#1_RR2.opus
tune=-3
</region>
</group>

<group>
group_label=RR3
seq_length=8
seq_position=3

<region>
hivel=42
key=G3
lovel=0
offset=8693
sample=Basstrombone_staccatissimo_PP_G3_RR3.opus
tune=-8
</region>

<region>
hivel=42
key=G2
lovel=0
offset=8023
sample=Basstrombone_staccatissimo_PP_G2_RR3.opus
tune=-18
</region>

<region>
hivel=42
key=G1
lovel=0
offset=6659
sample=Basstrombone_staccatissimo_PP_G1_RR3.opus
tune=-29
</region>

<region>
hivel=42
key=G#3
lovel=0
offset=8967
sample=Basstrombone_staccatissimo_PP_G#3_RR3.opus
tune=-18
</region>

<region>
hivel=42
key=G#2
lovel=0
offset=10602
sample=Basstrombone_staccatissimo_PP_G#2_RR3.opus
tune=-13
</region>

<region>
hivel=42
key=G#1
lovel=0
offset=8996
sample=Basstrombone_staccatissimo_PP_G#1_RR3.opus
tune=+13
</region>

<region>
hivel=42
key=F3
lovel=0
offset=10036
sample=Basstrombone_staccatissimo_PP_F3_RR3.opus
tune=-18
</region>

<region>
hivel=42
key=F2
lovel=0
offset=11269
sample=Basstrombone_staccatissimo_PP_F2_RR3.opus
tune=+5
</region>

<region>
hivel=42
key=F1
lovel=0
offset=7717
sample=Basstrombone_staccatissimo_PP_F1_RR3.opus
tune=+32
</region>

<region>
hivel=42
key=F#3
lovel=0
offset=9978
sample=Basstrombone_staccatissimo_PP_F#3_RR3.opus
tune=-19
</region>

<region>
hivel=42
key=F#2
lovel=0
offset=9999
sample=Basstrombone_staccatissimo_PP_F#2_RR3.opus
tune=-4
</region>

<region>
hivel=42
key=F#1
lovel=0
offset=9181
sample=Basstrombone_staccatissimo_PP_F#1_RR3.opus
tune=-35
</region>

<region>
hivel=42
key=E3
lovel=0
offset=9088
sample=Basstrombone_staccatissimo_PP_E3_RR3.opus
tune=-6
</region>

<region>
hivel=42
key=E2
lovel=0
offset=10118
sample=Basstrombone_staccatissimo_PP_E2_RR3.opus
</region>

<region>
hikey=E1
hivel=42
lokey=A#0
lovel=0
offset=9226
pitch_keycenter=E1
sample=Basstrombone_staccatissimo_PP_E1_RR3.opus
tune=-4
</region>

<region>
hivel=42
key=D3
lovel=0
offset=9738
sample=Basstrombone_staccatissimo_PP_D3_RR3.opus
tune=-17
</region>

<region>
hivel=42
key=D2
lovel=0
offset=11074
sample=Basstrombone_staccatissimo_PP_D2_RR3.opus
tune=-14
</region>

<region>
hivel=42
key=D#3
lovel=0
offset=10030
sample=Basstrombone_staccatissimo_PP_D#3_RR3.opus
tune=-14
</region>

<region>
hivel=42
key=D#2
lovel=0
offset=11310
sample=Basstrombone_staccatissimo_PP_D#2_RR3.opus
tune=+16
</region>

<region>
hikey=D#5
hivel=42
lokey=C4
lovel=0
offset=10126
sample=Basstrombone_staccatissimo_PP_C4_RR3.opus
tune=-38
</region>

<region>
hivel=42
key=C3
lovel=0
offset=9326
sample=Basstrombone_staccatissimo_PP_C3_RR3.opus
tune=-20
</region>

<region>
hivel=42
key=C2
lovel=0
offset=9252
sample=Basstrombone_staccatissimo_PP_C2_RR3.opus
tune=-14
</region>

<region>
hivel=42
key=C#3
lovel=0
offset=10628
sample=Basstrombone_staccatissimo_PP_C#3_RR3.opus
tune=-27
</region>

<region>
hivel=42
key=C#2
lovel=0
offset=8955
sample=Basstrombone_staccatissimo_PP_C#2_RR3.opus
tune=+5
</region>

<region>
hivel=42
key=B3
lovel=0
offset=8802
sample=Basstrombone_staccatissimo_PP_B3_RR3.opus
tune=-25
</region>

<region>
hivel=42
key=B2
lovel=0
offset=8459
sample=Basstrombone_staccatissimo_PP_B2_RR3.opus
tune=-12
</region>

<region>
hivel=42
key=B1
lovel=0
offset=7176
sample=Basstrombone_staccatissimo_PP_B1_RR3.opus
tune=-30
</region>

<region>
hivel=42
key=A3
lovel=0
offset=10343
sample=Basstrombone_staccatissimo_PP_A3_RR3.opus
tune=-10
</region>

<region>
hivel=42
key=A2
lovel=0
offset=11124
sample=Basstrombone_staccatissimo_PP_A2_RR3.opus
tune=-9
</region>

<region>
hivel=42
key=A1
lovel=0
offset=9511
sample=Basstrombone_staccatissimo_PP_A1_RR3.opus
tune=-1
</region>

<region>
hivel=42
key=A#3
lovel=0
offset=8989
sample=Basstrombone_staccatissimo_PP_A#3_RR3.opus
tune=-10
</region>

<region>
hivel=42
key=A#2
lovel=0
offset=10015
sample=Basstrombone_staccatissimo_PP_A#2_RR3.opus
tune=+8
</region>

<region>
hivel=42
key=A#1
lovel=0
offset=8913
sample=Basstrombone_staccatissimo_PP_A#1_RR3.opus
tune=-13
</region>

<region>
hivel=84
key=G3
lovel=43
offset=5309
sample=Basstrombone_staccatissimo_MF_G3_RR3.opus
tune=-21
</region>

<region>
hivel=84
key=G2
lovel=43
offset=7748
sample=Basstrombone_staccatissimo_MF_G2_RR3.opus
tune=-3
</region>

<region>
hivel=84
key=G1
lovel=43
offset=7076
sample=Basstrombone_staccatissimo_MF_G1_RR3.opus
tune=-22
</region>

<region>
hivel=84
key=G#3
lovel=43
offset=6078
sample=Basstrombone_staccatissimo_MF_G#3_RR3.opus
tune=-6
</region>

<region>
hivel=84
key=G#2
lovel=43
offset=7074
sample=Basstrombone_staccatissimo_MF_G#2_RR3.opus
tune=-16
</region>

<region>
hivel=84
key=G#1
lovel=43
offset=5568
sample=Basstrombone_staccatissimo_MF_G#1_RR3.opus
tune=-26
</region>

<region>
hivel=84
key=F3
lovel=43
offset=7209
sample=Basstrombone_staccatissimo_MF_F3_RR3.opus
tune=-15
</region>

<region>
hivel=84
key=F2
lovel=43
offset=7236
sample=Basstrombone_staccatissimo_MF_F2_RR3.opus
tune=+3
</region>

<region>
hivel=84
key=F1
lovel=43
offset=4970
sample=Basstrombone_staccatissimo_MF_F1_RR3.opus
tune=-3
</region>

<region>
hivel=84
key=F#3
lovel=43
offset=5079
sample=Basstrombone_staccatissimo_MF_F#3_RR3.opus
tune=-16
</region>

<region>
hivel=84
key=F#2
lovel=43
offset=7740
sample=Basstrombone_staccatissimo_MF_F#2_RR3.opus
tune=-12
</region>

<region>
hivel=84
key=F#1
lovel=43
offset=6131
sample=Basstrombone_staccatissimo_MF_F#1_RR3.opus
tune=-34
</region>

<region>
hivel=84
key=E3
lovel=43
offset=8836
sample=Basstrombone_staccatissimo_MF_E3_RR3.opus
tune=-13
</region>

<region>
hivel=84
key=E2
lovel=43
offset=3992
sample=Basstrombone_staccatissimo_MF_E2_RR3.opus
tune=+4
</region>

<region>
hikey=E1
hivel=84
lokey=A#0
lovel=43
pitch_keycenter=E1
sample=Basstrombone_staccatissimo_MF_E1_RR3.opus
tune=-17
</region>

<region>
hivel=84
key=D3
lovel=43
offset=950
sample=Basstrombone_staccatissimo_MF_D3_RR3.opus
tune=-21
</region>

<region>
hivel=84
key=D2
lovel=43
offset=4079
sample=Basstrombone_staccatissimo_MF_D2_RR3.opus
tune=-15
</region>

<region>
hivel=84
key=D#3
lovel=43
offset=6183
sample=Basstrombone_staccatissimo_MF_D#3_RR3.opus
tune=-22
</region>

<region>
hivel=84
key=D#2
lovel=43
offset=6341
sample=Basstrombone_staccatissimo_MF_D#2_RR3.opus
tune=-5
</region>

<region>
hikey=D#5
hivel=84
lokey=C4
lovel=43
offset=7418
sample=Basstrombone_staccatissimo_MF_C4_RR3.opus
tune=-1
</region>

<region>
hivel=84
key=C3
lovel=43
offset=7395
sample=Basstrombone_staccatissimo_MF_C3_RR3.opus
tune=-8
</region>

<region>
hivel=84
key=C2
lovel=43
offset=3645
sample=Basstrombone_staccatissimo_MF_C2_RR3.opus
tune=-5
</region>

<region>
hivel=84
key=C#3
lovel=43
offset=8557
sample=Basstrombone_staccatissimo_MF_C#3_RR3.opus
tune=-21
</region>

<region>
hivel=84
key=C#2
lovel=43
offset=4744
sample=Basstrombone_staccatissimo_MF_C#2_RR3.opus
tune=-6
</region>

<region>
hivel=84
key=B3
lovel=43
offset=5840
sample=Basstrombone_staccatissimo_MF_B3_RR3.opus
tune=-13
</region>

<region>
hivel=84
key=B2
lovel=43
offset=4049
sample=Basstrombone_staccatissimo_MF_B2_RR3.opus
tune=-23
</region>

<region>
hivel=84
key=B1
lovel=43
offset=4101
sample=Basstrombone_staccatissimo_MF_B1_RR3.opus
tune=-21
</region>

<region>
hivel=84
key=A3
lovel=43
offset=6762
sample=Basstrombone_staccatissimo_MF_A3_RR3.opus
tune=-17
</region>

<region>
hivel=84
key=A2
lovel=43
offset=5710
sample=Basstrombone_staccatissimo_MF_A2_RR3.opus
tune=-28
</region>

<region>
hivel=84
key=A1
lovel=43
offset=7163
sample=Basstrombone_staccatissimo_MF_A1_RR3.opus
tune=-20
</region>

<region>
hivel=84
key=A#3
lovel=43
offset=7313
sample=Basstrombone_staccatissimo_MF_A#3_RR3.opus
tune=-11
</region>

<region>
hivel=84
key=A#2
lovel=43
offset=5751
sample=Basstrombone_staccatissimo_MF_A#2_RR3.opus
tune=-4
</region>

<region>
hivel=84
key=A#1
lovel=43
offset=5247
sample=Basstrombone_staccatissimo_MF_A#1_RR3.opus
tune=-35
</region>

<region>
hivel=127
key=G3
lovel=85
offset=690
sample=Basstrombone_staccatissimo_FF_G3_RR3.opus
tune=-13
</region>

<region>
hivel=127
key=G2
lovel=85
offset=2715
sample=Basstrombone_staccatissimo_FF_G2_RR3.opus
tune=-22
</region>

<region>
hivel=127
key=G1
lovel=85
offset=4177
sample=Basstrombone_staccatissimo_FF_G1_RR3.opus
tune=-11
</region>

<region>
hivel=127
key=G#3
lovel=85
offset=2887
sample=Basstrombone_staccatissimo_FF_G#3_RR3.opus
tune=-19
</region>

<region>
hivel=127
key=G#2
lovel=85
offset=1407
sample=Basstrombone_staccatissimo_FF_G#2_RR3.opus
tune=-7
</region>

<region>
hivel=127
key=G#1
lovel=85
offset=3149
sample=Basstrombone_staccatissimo_FF_G#1_RR3.opus
tune=-1
</region>

<region>
hivel=127
key=F3
lovel=85
offset=1151
sample=Basstrombone_staccatissimo_FF_F3_RR3.opus
tune=-20
</region>

<region>
hivel=127
key=F2
lovel=85
offset=2836
sample=Basstrombone_staccatissimo_FF_F2_RR3.opus
tune=-12
</region>

<region>
hivel=127
key=F1
lovel=85
offset=1964
sample=Basstrombone_staccatissimo_FF_F1_RR3.opus
tune=+10
</region>

<region>
hivel=127
key=F#3
lovel=85
offset=3060
sample=Basstrombone_staccatissimo_FF_F#3_RR3.opus
tune=-20
</region>

<region>
hivel=127
key=F#2
lovel=85
offset=2433
sample=Basstrombone_staccatissimo_FF_F#2_RR3.opus
tune=-20
</region>

<region>
hivel=127
key=F#1
lovel=85
offset=3357
sample=Basstrombone_staccatissimo_FF_F#1_RR3.opus
tune=-4
</region>

<region>
hivel=127
key=E3
lovel=85
offset=2660
sample=Basstrombone_staccatissimo_FF_E3_RR3.opus
tune=-22
</region>

<region>
hivel=127
key=E2
lovel=85
offset=1978
sample=Basstrombone_staccatissimo_FF_E2_RR3.opus
tune=-24
</region>

<region>
hikey=E1
hivel=127
lokey=A#0
lovel=85
offset=2037
pitch_keycenter=E1
sample=Basstrombone_staccatissimo_FF_E1_RR3.opus
tune=-5
</region>

<region>
hivel=127
key=D3
lovel=85
offset=1784
sample=Basstrombone_staccatissimo_FF_D3_RR3.opus
tune=-3
</region>

<region>
hivel=127
key=D2
lovel=85
offset=2601
sample=Basstrombone_staccatissimo_FF_D2_RR3.opus
tune=-19
</region>

<region>
hivel=127
key=D#3
lovel=85
offset=2045
sample=Basstrombone_staccatissimo_FF_D#3_RR3.opus
tune=-17
</region>

<region>
hivel=127
key=D#2
lovel=85
offset=2823
sample=Basstrombone_staccatissimo_FF_D#2_RR3.opus
tune=-9
</region>

<region>
hikey=D#5
hivel=127
lokey=C4
lovel=85
offset=2135
sample=Basstrombone_staccatissimo_FF_C4_RR3.opus
tune=-9
</region>

<region>
hivel=127
key=C3
lovel=85
offset=1427
sample=Basstrombone_staccatissimo_FF_C3_RR3.opus
tune=-12
</region>

<region>
hivel=127
key=C2
lovel=85
offset=3588
sample=Basstrombone_staccatissimo_FF_C2_RR3.opus
tune=-3
</region>

<region>
hivel=127
key=C#3
lovel=85
offset=2677
sample=Basstrombone_staccatissimo_FF_C#3_RR3.opus
tune=-27
</region>

<region>
hivel=127
key=C#2
lovel=85
offset=1492
sample=Basstrombone_staccatissimo_FF_C#2_RR3.opus
tune=-21
</region>

<region>
hivel=127
key=B3
lovel=85
offset=4750
sample=Basstrombone_staccatissimo_FF_B3_RR3.opus
tune=-16
</region>

<region>
hivel=127
key=B2
lovel=85
offset=1536
sample=Basstrombone_staccatissimo_FF_B2_RR3.opus
tune=-12
</region>

<region>
hivel=127
key=B1
lovel=85
offset=1420
sample=Basstrombone_staccatissimo_FF_B1_RR3.opus
tune=-25
</region>

<region>
hivel=127
key=A3
lovel=85
offset=2743
sample=Basstrombone_staccatissimo_FF_A3_RR3.opus
tune=-14
</region>

<region>
hivel=127
key=A2
lovel=85
offset=1480
sample=Basstrombone_staccatissimo_FF_A2_RR3.opus
tune=-17
</region>

<region>
hivel=127
key=A1
lovel=85
offset=3607
sample=Basstrombone_staccatissimo_FF_A1_RR3.opus
tune=-6
</region>

<region>
hivel=127
key=A#3
lovel=85
offset=1316
sample=Basstrombone_staccatissimo_FF_A#3_RR3.opus
tune=-12
</region>

<region>
hivel=127
key=A#2
lovel=85
offset=2857
sample=Basstrombone_staccatissimo_FF_A#2_RR3.opus
tune=-9
</region>

<region>
hivel=127
key=A#1
lovel=85
offset=3022
sample=Basstrombone_staccatissimo_FF_A#1_RR3.opus
tune=-16
</region>
</group>

<group>
group_label=RR4
seq_length=8
seq_position=4

<region>
hivel=42
key=G3
lovel=0
offset=9022
sample=Basstrombone_staccatissimo_PP_G3_RR4.opus
tune=-15
</region>

<region>
hivel=42
key=G2
lovel=0
offset=6818
sample=Basstrombone_staccatissimo_PP_G2_RR4.opus
tune=-19
</region>

<region>
hivel=42
key=G1
lovel=0
offset=9503
sample=Basstrombone_staccatissimo_PP_G1_RR4.opus
tune=-48
</region>

<region>
hivel=42
key=G#3
lovel=0
offset=8730
sample=Basstrombone_staccatissimo_PP_G#3_RR4.opus
tune=-12
</region>

<region>
hivel=42
key=G#2
lovel=0
offset=10542
sample=Basstrombone_staccatissimo_PP_G#2_RR4.opus
tune=+1
</region>

<region>
hivel=42
key=G#1
lovel=0
offset=7969
sample=Basstrombone_staccatissimo_PP_G#1_RR4.opus
tune=-25
</region>

<region>
hivel=42
key=F3
lovel=0
offset=9955
sample=Basstrombone_staccatissimo_PP_F3_RR4.opus
tune=-6
</region>

<region>
hivel=42
key=F2
lovel=0
offset=9377
sample=Basstrombone_staccatissimo_PP_F2_RR4.opus
tune=+3
</region>

<region>
hivel=42
key=F1
lovel=0
offset=7920
sample=Basstrombone_staccatissimo_PP_F1_RR4.opus
tune=+14
</region>

<region>
hivel=42
key=F#3
lovel=0
offset=9369
sample=Basstrombone_staccatissimo_PP_F#3_RR4.opus
tune=-19
</region>

<region>
hivel=42
key=F#2
lovel=0
offset=8725
sample=Basstrombone_staccatissimo_PP_F#2_RR4.opus
tune=-9
</region>

<region>
hivel=42
key=F#1
lovel=0
offset=7382
sample=Basstrombone_staccatissimo_PP_F#1_RR4.opus
tune=-20
</region>

<region>
hivel=42
key=E3
lovel=0
offset=9924
sample=Basstrombone_staccatissimo_PP_E3_RR4.opus
tune=-7
</region>

<region>
hivel=42
key=E2
lovel=0
offset=9948
sample=Basstrombone_staccatissimo_PP_E2_RR4.opus
tune=-5
</region>

<region>
hikey=E1
hivel=42
lokey=A#0
lovel=0
offset=9791
pitch_keycenter=E1
sample=Basstrombone_staccatissimo_PP_E1_RR4.opus
tune=-9
</region>

<region>
hivel=42
key=D3
lovel=0
offset=9395
sample=Basstrombone_staccatissimo_PP_D3_RR4.opus
tune=-27
</region>

<region>
hivel=42
key=D2
lovel=0
offset=9498
sample=Basstrombone_staccatissimo_PP_D2_RR4.opus
tune=-20
</region>

<region>
hivel=42
key=D#3
lovel=0
offset=11177
sample=Basstrombone_staccatissimo_PP_D#3_RR4.opus
tune=-29
</region>

<region>
hivel=42
key=D#2
lovel=0
offset=10130
sample=Basstrombone_staccatissimo_PP_D#2_RR4.opus
tune=+17
</region>

<region>
hikey=D#5
hivel=42
lokey=C4
lovel=0
offset=8937
sample=Basstrombone_staccatissimo_PP_C4_RR4.opus
tune=-29
</region>

<region>
hivel=42
key=C3
lovel=0
offset=10146
sample=Basstrombone_staccatissimo_PP_C3_RR4.opus
tune=-13
</region>

<region>
hivel=42
key=C2
lovel=0
offset=9048
sample=Basstrombone_staccatissimo_PP_C2_RR4.opus
tune=-20
</region>

<region>
hivel=42
key=C#3
lovel=0
offset=11077
sample=Basstrombone_staccatissimo_PP_C#3_RR4.opus
tune=-24
</region>

<region>
hivel=42
key=C#2
lovel=0
offset=10140
sample=Basstrombone_staccatissimo_PP_C#2_RR4.opus
tune=-26
</region>

<region>
hivel=42
key=B3
lovel=0
offset=7841
sample=Basstrombone_staccatissimo_PP_B3_RR4.opus
tune=-24
</region>

<region>
hivel=42
key=B2
lovel=0
offset=10187
sample=Basstrombone_staccatissimo_PP_B2_RR4.opus
tune=-23
</region>

<region>
hivel=42
key=B1
lovel=0
offset=8559
sample=Basstrombone_staccatissimo_PP_B1_RR4.opus
tune=-9
</region>

<region>
hivel=42
key=A3
lovel=0
offset=7806
sample=Basstrombone_staccatissimo_PP_A3_RR4.opus
tune=-16
</region>

<region>
hivel=42
key=A2
lovel=0
offset=9927
sample=Basstrombone_staccatissimo_PP_A2_RR4.opus
tune=+2
</region>

<region>
hivel=42
key=A1
lovel=0
offset=8297
sample=Basstrombone_staccatissimo_PP_A1_RR4.opus
tune=+3
</region>

<region>
hivel=42
key=A#3
lovel=0
offset=9251
sample=Basstrombone_staccatissimo_PP_A#3_RR4.opus
tune=-4
</region>

<region>
hivel=42
key=A#2
lovel=0
offset=10598
sample=Basstrombone_staccatissimo_PP_A#2_RR4.opus
tune=+1
</region>

<region>
hivel=42
key=A#1
lovel=0
offset=9742
sample=Basstrombone_staccatissimo_PP_A#1_RR4.opus
tune=-27
</region>

<region>
hivel=84
key=G3
lovel=43
offset=5482
sample=Basstrombone_staccatissimo_MF_G3_RR4.opus
tune=-21
</region>

<region>
hivel=84
key=G2
lovel=43
offset=5662
sample=Basstrombone_staccatissimo_MF_G2_RR4.opus
tune=-11
</region>

<region>
hivel=84
key=G1
lovel=43
offset=6338
sample=Basstrombone_staccatissimo_MF_G1_RR4.opus
tune=-43
</region>

<region>
hivel=84
key=G#3
lovel=43
offset=6368
sample=Basstrombone_staccatissimo_MF_G#3_RR4.opus
tune=-15
</region>

<region>
hivel=84
key=G#2
lovel=43
offset=5524
sample=Basstrombone_staccatissimo_MF_G#2_RR4.opus
tune=-25
</region>

<region>
hivel=84
key=G#1
lovel=43
offset=6979
sample=Basstrombone_staccatissimo_MF_G#1_RR4.opus
tune=-22
</region>

<region>
hivel=84
key=F3
lovel=43
offset=6745
sample=Basstrombone_staccatissimo_MF_F3_RR4.opus
tune=-21
</region>

<region>
hivel=84
key=F2
lovel=43
offset=5844
sample=Basstrombone_staccatissimo_MF_F2_RR4.opus
tune=+2
</region>

<region>
hivel=84
key=F1
lovel=43
offset=5903
sample=Basstrombone_staccatissimo_MF_F1_RR4.opus
tune=-12
</region>

<region>
hivel=84
key=F#3
lovel=43
offset=5046
sample=Basstrombone_staccatissimo_MF_F#3_RR4.opus
tune=-16
</region>

<region>
hivel=84
key=F#2
lovel=43
offset=8466
sample=Basstrombone_staccatissimo_MF_F#2_RR4.opus
tune=-16
</region>

<region>
hivel=84
key=F#1
lovel=43
offset=6052
sample=Basstrombone_staccatissimo_MF_F#1_RR4.opus
tune=-21
</region>

<region>
hivel=84
key=E3
lovel=43
offset=7611
sample=Basstrombone_staccatissimo_MF_E3_RR4.opus
tune=-15
</region>

<region>
hivel=84
key=E2
lovel=43
offset=4691
sample=Basstrombone_staccatissimo_MF_E2_RR4.opus
tune=-2
</region>

<region>
hikey=E1
hivel=84
lokey=A#0
lovel=43
offset=3524
pitch_keycenter=E1
sample=Basstrombone_staccatissimo_MF_E1_RR4.opus
tune=-12
</region>

<region>
hivel=84
key=D3
lovel=43
sample=Basstrombone_staccatissimo_MF_D3_RR4.opus
tune=-22
</region>

<region>
hivel=84
key=D2
lovel=43
offset=3791
sample=Basstrombone_staccatissimo_MF_D2_RR4.opus
tune=-10
</region>

<region>
hivel=84
key=D#3
lovel=43
offset=5641
sample=Basstrombone_staccatissimo_MF_D#3_RR4.opus
tune=-23
</region>

<region>
hivel=84
key=D#2
lovel=43
offset=6257
sample=Basstrombone_staccatissimo_MF_D#2_RR4.opus
tune=-16
</region>

<region>
hikey=D#5
hivel=84
lokey=C4
lovel=43
offset=4782
sample=Basstrombone_staccatissimo_MF_C4_RR4.opus
</region>

<region>
hivel=84
key=C3
lovel=43
offset=6178
sample=Basstrombone_staccatissimo_MF_C3_RR4.opus
tune=-15
</region>

<region>
hivel=84
key=C2
lovel=43
offset=5424
sample=Basstrombone_staccatissimo_MF_C2_RR4.opus
tune=-2
</region>

<region>
hivel=84
key=C#3
lovel=43
offset=7183
sample=Basstrombone_staccatissimo_MF_C#3_RR4.opus
tune=-27
</region>

<region>
hivel=84
key=C#2
lovel=43
offset=4408
sample=Basstrombone_staccatissimo_MF_C#2_RR4.opus
tune=-17
</region>

<region>
hivel=84
key=B3
lovel=43
offset=5732
sample=Basstrombone_staccatissimo_MF_B3_RR4.opus
tune=-17
</region>

<region>
hivel=84
key=B2
lovel=43
offset=5248
sample=Basstrombone_staccatissimo_MF_B2_RR4.opus
tune=-20
</region>

<region>
hivel=84
key=B1
lovel=43
offset=3083
sample=Basstrombone_staccatissimo_MF_B1_RR4.opus
tune=-37
</region>

<region>
hivel=84
key=A3
lovel=43
offset=6707
sample=Basstrombone_staccatissimo_MF_A3_RR4.opus
tune=-10
</region>

<region>
hivel=84
key=A2
lovel=43
offset=6060
sample=Basstrombone_staccatissimo_MF_A2_RR4.opus
tune=-16
</region>

<region>
hivel=84
key=A1
lovel=43
offset=5878
sample=Basstrombone_staccatissimo_MF_A1_RR4.opus
tune=-10
</region>

<region>
hivel=84
key=A#3
lovel=43
offset=6870
sample=Basstrombone_staccatissimo_MF_A#3_RR4.opus
tune=-19
</region>

<region>
hivel=84
key=A#2
lovel=43
offset=5694
sample=Basstrombone_staccatissimo_MF_A#2_RR4.opus
tune=+2
</region>

<region>
hivel=84
key=A#1
lovel=43
offset=5937
sample=Basstrombone_staccatissimo_MF_A#1_RR4.opus
tune=-35
</region>

<region>
hivel=127
key=G3
lovel=85
offset=1856
sample=Basstrombone_staccatissimo_FF_G3_RR4.opus
tune=-14
</region>

<region>
hivel=127
key=G2
lovel=85
offset=2153
sample=Basstrombone_staccatissimo_FF_G2_RR4.opus
tune=-22
</region>

<region>
hivel=127
key=G1
lovel=85
offset=5008
sample=Basstrombone_staccatissimo_FF_G1_RR4.opus
tune=-5
</region>

<region>
hivel=127
key=G#3
lovel=85
offset=1493
sample=Basstrombone_staccatissimo_FF_G#3_RR4.opus
tune=-9
</region>

<region>
hivel=127
key=G#2
lovel=85
offset=278
sample=Basstrombone_staccatissimo_FF_G#2_RR4.opus
tune=-5
</region>

<region>
hivel=127
key=G#1
lovel=85
offset=2526
sample=Basstrombone_staccatissimo_FF_G#1_RR4.opus
tune=-26
</region>

<region>
hivel=127
key=F3
lovel=85
offset=1248
sample=Basstrombone_staccatissimo_FF_F3_RR4.opus
tune=-25
</region>

<region>
hivel=127
key=F2
lovel=85
offset=1643
sample=Basstrombone_staccatissimo_FF_F2_RR4.opus
tune=-7
</region>

<region>
hivel=127
key=F1
lovel=85
offset=2643
sample=Basstrombone_staccatissimo_FF_F1_RR4.opus
tune=+19
</region>

<region>
hivel=127
key=F#3
lovel=85
offset=2575
sample=Basstrombone_staccatissimo_FF_F#3_RR4.opus
tune=-11
</region>

<region>
hivel=127
key=F#2
lovel=85
offset=3587
sample=Basstrombone_staccatissimo_FF_F#2_RR4.opus
tune=-17
</region>

<region>
hivel=127
key=F#1
lovel=85
offset=2171
sample=Basstrombone_staccatissimo_FF_F#1_RR4.opus
tune=-12
</region>

<region>
hivel=127
key=E3
lovel=85
offset=1877
sample=Basstrombone_staccatissimo_FF_E3_RR4.opus
tune=-16
</region>

<region>
hivel=127
key=E2
lovel=85
offset=1384
sample=Basstrombone_staccatissimo_FF_E2_RR4.opus
tune=-22
</region>

<region>
hikey=E1
hivel=127
lokey=A#0
lovel=85
offset=1804
pitch_keycenter=E1
sample=Basstrombone_staccatissimo_FF_E1_RR4.opus
tune=-3
</region>

<region>
hivel=127
key=D3
lovel=85
offset=1665
sample=Basstrombone_staccatissimo_FF_D3_RR4.opus
tune=-17
</region>

<region>
hivel=127
key=D2
lovel=85
offset=1595
sample=Basstrombone_staccatissimo_FF_D2_RR4.opus
tune=-22
</region>

<region>
hivel=127
key=D#3
lovel=85
offset=1666
sample=Basstrombone_staccatissimo_FF_D#3_RR4.opus
tune=-23
</region>

<region>
hivel=127
key=D#2
lovel=85
offset=3024
sample=Basstrombone_staccatissimo_FF_D#2_RR4.opus
</region>

<region>
hikey=D#5
hivel=127
lokey=C4
lovel=85
offset=2127
sample=Basstrombone_staccatissimo_FF_C4_RR4.opus
tune=-10
</region>

<region>
hivel=127
key=C3
lovel=85
offset=41
sample=Basstrombone_staccatissimo_FF_C3_RR4.opus
</region>

<region>
hivel=127
key=C2
lovel=85
offset=3006
sample=Basstrombone_staccatissimo_FF_C2_RR4.opus
tune=-5
</region>

<region>
hivel=127
key=C#3
lovel=85
offset=1876
sample=Basstrombone_staccatissimo_FF_C#3_RR4.opus
tune=-25
</region>

<region>
hivel=127
key=C#2
lovel=85
offset=2147
sample=Basstrombone_staccatissimo_FF_C#2_RR4.opus
tune=-11
</region>

<region>
hivel=127
key=B3
lovel=85
offset=2831
sample=Basstrombone_staccatissimo_FF_B3_RR4.opus
tune=-16
</region>

<region>
hivel=127
key=B2
lovel=85
offset=2306
sample=Basstrombone_staccatissimo_FF_B2_RR4.opus
tune=-25
</region>

<region>
hivel=127
key=B1
lovel=85
offset=2043
sample=Basstrombone_staccatissimo_FF_B1_RR4.opus
tune=-28
</region>

<region>
hivel=127
key=A3
lovel=85
offset=2085
sample=Basstrombone_staccatissimo_FF_A3_RR4.opus
tune=-15
</region>

<region>
hivel=127
key=A2
lovel=85
offset=2810
sample=Basstrombone_staccatissimo_FF_A2_RR4.opus
tune=-13
</region>

<region>
hivel=127
key=A1
lovel=85
offset=1472
sample=Basstrombone_staccatissimo_FF_A1_RR4.opus
tune=-17
</region>

<region>
hivel=127
key=A#3
lovel=85
offset=948
sample=Basstrombone_staccatissimo_FF_A#3_RR4.opus
tune=-20
</region>

<region>
hivel=127
key=A#2
lovel=85
offset=2028
sample=Basstrombone_staccatissimo_FF_A#2_RR4.opus
tune=-21
</region>

<region>
hivel=127
key=A#1
lovel=85
offset=1760
sample=Basstrombone_staccatissimo_FF_A#1_RR4.opus
tune=-16
</region>
</group>

<group>
group_label=RR5
seq_length=8
seq_position=5

<region>
hivel=42
key=G3
lovel=0
offset=10033
sample=Basstrombone_staccatissimo_PP_G3_RR5.opus
tune=-8
</region>

<region>
hivel=42
key=G2
lovel=0
offset=8779
sample=Basstrombone_staccatissimo_PP_G2_RR5.opus
tune=-4
</region>

<region>
hivel=42
key=G1
lovel=0
offset=9369
sample=Basstrombone_staccatissimo_PP_G1_RR5.opus
tune=-7
</region>

<region>
hivel=42
key=G#3
lovel=0
offset=9908
sample=Basstrombone_staccatissimo_PP_G#3_RR5.opus
tune=-4
</region>

<region>
hivel=42
key=G#2
lovel=0
offset=10354
sample=Basstrombone_staccatissimo_PP_G#2_RR5.opus
</region>

<region>
hivel=42
key=G#1
lovel=0
offset=8617
sample=Basstrombone_staccatissimo_PP_G#1_RR5.opus
tune=-26
</region>

<region>
hivel=42
key=F3
lovel=0
offset=9783
sample=Basstrombone_staccatissimo_PP_F3_RR5.opus
tune=-14
</region>

<region>
hivel=42
key=F2
lovel=0
offset=8618
sample=Basstrombone_staccatissimo_PP_F2_RR5.opus
tune=+1
</region>

<region>
hivel=42
key=F1
lovel=0
offset=6154
sample=Basstrombone_staccatissimo_PP_F1_RR5.opus
tune=+33
</region>

<region>
hivel=42
key=F#3
lovel=0
offset=8766
sample=Basstrombone_staccatissimo_PP_F#3_RR5.opus
tune=-13
</region>

<region>
hivel=42
key=F#2
lovel=0
offset=9272
sample=Basstrombone_staccatissimo_PP_F#2_RR5.opus
tune=-8
</region>

<region>
hivel=42
key=F#1
lovel=0
offset=8010
sample=Basstrombone_staccatissimo_PP_F#1_RR5.opus
tune=-17
</region>

<region>
hivel=42
key=E3
lovel=0
offset=9346
sample=Basstrombone_staccatissimo_PP_E3_RR5.opus
tune=+5
</region>

<region>
hivel=42
key=E2
lovel=0
offset=9339
sample=Basstrombone_staccatissimo_PP_E2_RR5.opus
tune=-5
</region>

<region>
hikey=E1
hivel=42
lokey=A#0
lovel=0
offset=9041
pitch_keycenter=E1
sample=Basstrombone_staccatissimo_PP_E1_RR5.opus
tune=-4
</region>

<region>
hivel=42
key=D3
lovel=0
offset=9081
sample=Basstrombone_staccatissimo_PP_D3_RR5.opus
tune=-13
</region>

<region>
hivel=42
key=D2
lovel=0
offset=8990
sample=Basstrombone_staccatissimo_PP_D2_RR5.opus
tune=-27
</region>

<region>
hivel=42
key=D#3
lovel=0
offset=9558
sample=Basstrombone_staccatissimo_PP_D#3_RR5.opus
tune=-22
</region>

<region>
hivel=42
key=D#2
lovel=0
offset=10421
sample=Basstrombone_staccatissimo_PP_D#2_RR5.opus
tune=+21
</region>

<region>
hikey=D#5
hivel=42
lokey=C4
lovel=0
offset=9436
sample=Basstrombone_staccatissimo_PP_C4_RR5.opus
tune=-28
</region>

<region>
hivel=42
key=C3
lovel=0
offset=8163
sample=Basstrombone_staccatissimo_PP_C3_RR5.opus
tune=-13
</region>

<region>
hivel=42
key=C2
lovel=0
offset=8394
sample=Basstrombone_staccatissimo_PP_C2_RR5.opus
tune=-27
</region>

<region>
hivel=42
key=C#3
lovel=0
offset=9419
sample=Basstrombone_staccatissimo_PP_C#3_RR5.opus
tune=-24
</region>

<region>
hivel=42
key=C#2
lovel=0
offset=8950
sample=Basstrombone_staccatissimo_PP_C#2_RR5.opus
tune=-22
</region>

<region>
hivel=42
key=B3
lovel=0
offset=9982
sample=Basstrombone_staccatissimo_PP_B3_RR5.opus
tune=-11
</region>

<region>
hivel=42
key=B2
lovel=0
offset=10005
sample=Basstrombone_staccatissimo_PP_B2_RR5.opus
tune=-23
</region>

<region>
hivel=42
key=B1
lovel=0
offset=8761
sample=Basstrombone_staccatissimo_PP_B1_RR5.opus
tune=-7
</region>

<region>
hivel=42
key=A3
lovel=0
offset=9119
sample=Basstrombone_staccatissimo_PP_A3_RR5.opus
tune=-12
</region>

<region>
hivel=42
key=A2
lovel=0
offset=8703
sample=Basstrombone_staccatissimo_PP_A2_RR5.opus
tune=+16
</region>

<region>
hivel=42
key=A1
lovel=0
offset=6827
sample=Basstrombone_staccatissimo_PP_A1_RR5.opus
tune=+34
</region>

<region>
hivel=42
key=A#3
lovel=0
offset=8868
sample=Basstrombone_staccatissimo_PP_A#3_RR5.opus
tune=-14
</region>

<region>
hivel=42
key=A#2
lovel=0
offset=9985
sample=Basstrombone_staccatissimo_PP_A#2_RR5.opus
tune=-13
</region>

<region>
hivel=42
key=A#1
lovel=0
offset=11171
sample=Basstrombone_staccatissimo_PP_A#1_RR5.opus
tune=-8
</region>

<region>
hivel=84
key=G3
lovel=43
offset=4175
sample=Basstrombone_staccatissimo_MF_G3_RR5.opus
tune=-21
</region>

<region>
hivel=84
key=G2
lovel=43
offset=6057
sample=Basstrombone_staccatissimo_MF_G2_RR5.opus
tune=-17
</region>

<region>
hivel=84
key=G1
lovel=43
offset=6110
sample=Basstrombone_staccatissimo_MF_G1_RR5.opus
tune=-24
</region>

<region>
hivel=84
key=G#3
lovel=43
offset=6189
sample=Basstrombone_staccatissimo_MF_G#3_RR5.opus
tune=-13
</region>

<region>
hivel=84
key=G#2
lovel=43
offset=6257
sample=Basstrombone_staccatissimo_MF_G#2_RR5.opus
tune=-13
</region>

<region>
hivel=84
key=G#1
lovel=43
offset=5834
sample=Basstrombone_staccatissimo_MF_G#1_RR5.opus
tune=-18
</region>

<region>
hivel=84
key=F3
lovel=43
offset=4685
sample=Basstrombone_staccatissimo_MF_F3_RR5.opus
tune=-16
</region>

<region>
hivel=84
key=F2
lovel=43
offset=5632
sample=Basstrombone_staccatissimo_MF_F2_RR5.opus
tune=-10
</region>

<region>
hivel=84
key=F1
lovel=43
offset=5511
sample=Basstrombone_staccatissimo_MF_F1_RR5.opus
tune=-6
</region>

<region>
hivel=84
key=F#3
lovel=43
offset=6727
sample=Basstrombone_staccatissimo_MF_F#3_RR5.opus
tune=-15
</region>

<region>
hivel=84
key=F#2
lovel=43
offset=6398
sample=Basstrombone_staccatissimo_MF_F#2_RR5.opus
tune=-17
</region>

<region>
hivel=84
key=F#1
lovel=43
offset=5625
sample=Basstrombone_staccatissimo_MF_F#1_RR5.opus
tune=-8
</region>

<region>
hivel=84
key=E3
lovel=43
offset=6627
sample=Basstrombone_staccatissimo_MF_E3_RR5.opus
tune=-8
</region>

<region>
hivel=84
key=E2
lovel=43
offset=3699
sample=Basstrombone_staccatissimo_MF_E2_RR5.opus
tune=-6
</region>

<region>
hikey=E1
hivel=84
lokey=A#0
lovel=43
offset=3729
pitch_keycenter=E1
sample=Basstrombone_staccatissimo_MF_E1_RR5.opus
tune=-9
</region>

<region>
hivel=84
key=D3
lovel=43
offset=135
sample=Basstrombone_staccatissimo_MF_D3_RR5.opus
tune=-25
</region>

<region>
hivel=84
key=D2
lovel=43
offset=4300
sample=Basstrombone_staccatissimo_MF_D2_RR5.opus
tune=-14
</region>

<region>
hivel=84
key=D#3
lovel=43
offset=5998
sample=Basstrombone_staccatissimo_MF_D#3_RR5.opus
tune=-23
</region>

<region>
hivel=84
key=D#2
lovel=43
offset=7215
sample=Basstrombone_staccatissimo_MF_D#2_RR5.opus
tune=-9
</region>

<region>
hikey=D#5
hivel=84
lokey=C4
lovel=43
offset=7741
sample=Basstrombone_staccatissimo_MF_C4_RR5.opus
tune=-8
</region>

<region>
hivel=84
key=C3
lovel=43
offset=5874
sample=Basstrombone_staccatissimo_MF_C3_RR5.opus
tune=-10
</region>

<region>
hivel=84
key=C2
lovel=43
offset=6526
sample=Basstrombone_staccatissimo_MF_C2_RR5.opus
tune=+5
</region>

<region>
hivel=84
key=C#3
lovel=43
offset=7315
sample=Basstrombone_staccatissimo_MF_C#3_RR5.opus
tune=-29
</region>

<region>
hivel=84
key=C#2
lovel=43
offset=3972
sample=Basstrombone_staccatissimo_MF_C#2_RR5.opus
tune=-20
</region>

<region>
hivel=84
key=B3
lovel=43
offset=6730
sample=Basstrombone_staccatissimo_MF_B3_RR5.opus
tune=-13
</region>

<region>
hivel=84
key=B2
lovel=43
offset=5588
sample=Basstrombone_staccatissimo_MF_B2_RR5.opus
tune=-21
</region>

<region>
hivel=84
key=B1
lovel=43
offset=4165
sample=Basstrombone_staccatissimo_MF_B1_RR5.opus
tune=-30
</region>

<region>
hivel=84
key=A3
lovel=43
offset=5281
sample=Basstrombone_staccatissimo_MF_A3_RR5.opus
tune=-30
</region>

<region>
hivel=84
key=A2
lovel=43
offset=5455
sample=Basstrombone_staccatissimo_MF_A2_RR5.opus
tune=-15
</region>

<region>
hivel=84
key=A1
lovel=43
offset=4975
sample=Basstrombone_staccatissimo_MF_A1_RR5.opus
tune=-12
</region>

<region>
hivel=84
key=A#3
lovel=43
offset=6063
sample=Basstrombone_staccatissimo_MF_A#3_RR5.opus
tune=-17
</region>

<region>
hivel=84
key=A#2
lovel=43
offset=5582
sample=Basstrombone_staccatissimo_MF_A#2_RR5.opus
tune=+1
</region>

<region>
hivel=84
key=A#1
lovel=43
offset=4536
sample=Basstrombone_staccatissimo_MF_A#1_RR5.opus
tune=-40
</region>

<region>
hivel=127
key=G3
lovel=85
offset=1982
sample=Basstrombone_staccatissimo_FF_G3_RR5.opus
tune=-16
</region>

<region>
hivel=127
key=G2
lovel=85
offset=1930
sample=Basstrombone_staccatissimo_FF_G2_RR5.opus
tune=-24
</region>

<region>
hivel=127
key=G1
lovel=85
offset=4726
sample=Basstrombone_staccatissimo_FF_G1_RR5.opus
tune=+14
</region>

<region>
hivel=127
key=G#3
lovel=85
offset=2536
sample=Basstrombone_staccatissimo_FF_G#3_RR5.opus
tune=-6
</region>

<region>
hivel=127
key=G#2
lovel=85
offset=1770
sample=Basstrombone_staccatissimo_FF_G#2_RR5.opus
tune=-2
</region>

<region>
hivel=127
key=G#1
lovel=85
offset=3052
sample=Basstrombone_staccatissimo_FF_G#1_RR5.opus
tune=-26
</region>

<region>
hivel=127
key=F3
lovel=85
offset=3087
sample=Basstrombone_staccatissimo_FF_F3_RR5.opus
tune=-17
</region>

<region>
hivel=127
key=F2
lovel=85
offset=2154
sample=Basstrombone_staccatissimo_FF_F2_RR5.opus
tune=-3
</region>

<region>
hivel=127
key=F1
lovel=85
offset=2034
sample=Basstrombone_staccatissimo_FF_F1_RR5.opus
tune=+11
</region>

<region>
hivel=127
key=F#3
lovel=85
offset=2162
sample=Basstrombone_staccatissimo_FF_F#3_RR5.opus
tune=-10
</region>

<region>
hivel=127
key=F#2
lovel=85
offset=2870
sample=Basstrombone_staccatissimo_FF_F#2_RR5.opus
tune=-20
</region>

<region>
hivel=127
key=F#1
lovel=85
offset=2188
sample=Basstrombone_staccatissimo_FF_F#1_RR5.opus
tune=-20
</region>

<region>
hivel=127
key=E3
lovel=85
offset=1912
sample=Basstrombone_staccatissimo_FF_E3_RR5.opus
tune=-18
</region>

<region>
hivel=127
key=E2
lovel=85
offset=821
sample=Basstrombone_staccatissimo_FF_E2_RR5.opus
tune=-25
</region>

<region>
hikey=E1
hivel=127
lokey=A#0
lovel=85
offset=2284
pitch_keycenter=E1
sample=Basstrombone_staccatissimo_FF_E1_RR5.opus
tune=-11
</region>

<region>
hivel=127
key=D3
lovel=85
offset=2077
sample=Basstrombone_staccatissimo_FF_D3_RR5.opus
tune=-14
</region>

<region>
hivel=127
key=D2
lovel=85
offset=1991
sample=Basstrombone_staccatissimo_FF_D2_RR5.opus
tune=-30
</region>

<region>
hivel=127
key=D#3
lovel=85
offset=2432
sample=Basstrombone_staccatissimo_FF_D#3_RR5.opus
tune=-17
</region>

<region>
hivel=127
key=D#2
lovel=85
offset=3140
sample=Basstrombone_staccatissimo_FF_D#2_RR5.opus
tune=-7
</region>

<region>
hikey=D#5
hivel=127
lokey=C4
lovel=85
offset=2221
sample=Basstrombone_staccatissimo_FF_C4_RR5.opus
</region>

<region>
hivel=127
key=C3
lovel=85
offset=2889
sample=Basstrombone_staccatissimo_FF_C3_RR5.opus
tune=-15
</region>

<region>
hivel=127
key=C2
lovel=85
offset=2153
sample=Basstrombone_staccatissimo_FF_C2_RR5.opus
tune=-8
</region>

<region>
hivel=127
key=C#3
lovel=85
offset=1752
sample=Basstrombone_staccatissimo_FF_C#3_RR5.opus
tune=-29
</region>

<region>
hivel=127
key=C#2
lovel=85
offset=2296
sample=Basstrombone_staccatissimo_FF_C#2_RR5.opus
tune=-15
</region>

<region>
hivel=127
key=B3
lovel=85
offset=2696
sample=Basstrombone_staccatissimo_FF_B3_RR5.opus
tune=-14
</region>

<region>
hivel=127
key=B2
lovel=85
offset=4496
sample=Basstrombone_staccatissimo_FF_B2_RR5.opus
tune=-17
</region>

<region>
hivel=127
key=B1
lovel=85
offset=1762
sample=Basstrombone_staccatissimo_FF_B1_RR5.opus
tune=-30
</region>

<region>
hivel=127
key=A3
lovel=85
offset=3774
sample=Basstrombone_staccatissimo_FF_A3_RR5.opus
tune=-19
</region>

<region>
hivel=127
key=A2
lovel=85
offset=1924
sample=Basstrombone_staccatissimo_FF_A2_RR5.opus
tune=-19
</region>

<region>
hivel=127
key=A1
lovel=85
offset=2430
sample=Basstrombone_staccatissimo_FF_A1_RR5.opus
tune=-13
</region>

<region>
hivel=127
key=A#3
lovel=85
offset=3573
sample=Basstrombone_staccatissimo_FF_A#3_RR5.opus
tune=-11
</region>

<region>
hivel=127
key=A#2
lovel=85
offset=3134
sample=Basstrombone_staccatissimo_FF_A#2_RR5.opus
tune=-22
</region>

<region>
hivel=127
key=A#1
lovel=85
offset=2811
sample=Basstrombone_staccatissimo_FF_A#1_RR5.opus
tune=-20
</region>
</group>

<group>
group_label=RR6
seq_length=8
seq_position=6

<region>
hivel=42
key=G3
lovel=0
offset=8931
sample=Basstrombone_staccatissimo_PP_G3_RR6.opus
tune=-20
</region>

<region>
hivel=42
key=G2
lovel=0
offset=8060
sample=Basstrombone_staccatissimo_PP_G2_RR6.opus
tune=-18
</region>

<region>
hivel=42
key=G1
lovel=0
offset=7200
sample=Basstrombone_staccatissimo_PP_G1_RR6.opus
tune=+5
</region>

<region>
hivel=42
key=G#3
lovel=0
offset=8483
sample=Basstrombone_staccatissimo_PP_G#3_RR6.opus
tune=-12
</region>

<region>
hivel=42
key=G#2
lovel=0
offset=8173
sample=Basstrombone_staccatissimo_PP_G#2_RR6.opus
tune=-9
</region>

<region>
hivel=42
key=G#1
lovel=0
offset=10013
sample=Basstrombone_staccatissimo_PP_G#1_RR6.opus
tune=-13
</region>

<region>
hivel=42
key=F3
lovel=0
offset=9920
sample=Basstrombone_staccatissimo_PP_F3_RR6.opus
tune=+2
</region>

<region>
hivel=42
key=F2
lovel=0
offset=9023
sample=Basstrombone_staccatissimo_PP_F2_RR6.opus
tune=+9
</region>

<region>
hivel=42
key=F1
lovel=0
offset=7788
sample=Basstrombone_staccatissimo_PP_F1_RR6.opus
tune=+40
</region>

<region>
hivel=42
key=F#3
lovel=0
offset=8044
sample=Basstrombone_staccatissimo_PP_F#3_RR6.opus
tune=-28
</region>

<region>
hivel=42
key=F#2
lovel=0
offset=10059
sample=Basstrombone_staccatissimo_PP_F#2_RR6.opus
tune=-8
</region>

<region>
hivel=42
key=F#1
lovel=0
offset=7852
sample=Basstrombone_staccatissimo_PP_F#1_RR6.opus
tune=-37
</region>

<region>
hivel=42
key=E3
lovel=0
offset=9182
sample=Basstrombone_staccatissimo_PP_E3_RR6.opus
tune=-22
</region>

<region>
hivel=42
key=E2
lovel=0
offset=8386
sample=Basstrombone_staccatissimo_PP_E2_RR6.opus
tune=-3
</region>

<region>
hikey=E1
hivel=42
lokey=A#0
lovel=0
offset=8470
pitch_keycenter=E1
sample=Basstrombone_staccatissimo_PP_E1_RR6.opus
tune=+9
</region>

<region>
hivel=42
key=D3
lovel=0
offset=7923
sample=Basstrombone_staccatissimo_PP_D3_RR6.opus
tune=-29
</region>

<region>
hivel=42
key=D2
lovel=0
offset=7700
sample=Basstrombone_staccatissimo_PP_D2_RR6.opus
tune=-5
</region>

<region>
hivel=42
key=D#3
lovel=0
offset=7494
sample=Basstrombone_staccatissimo_PP_D#3_RR6.opus
tune=-24
</region>

<region>
hivel=42
key=D#2
lovel=0
offset=11268
sample=Basstrombone_staccatissimo_PP_D#2_RR6.opus
tune=+15
</region>

<region>
hikey=D#5
hivel=42
lokey=C4
lovel=0
offset=8722
sample=Basstrombone_staccatissimo_PP_C4_RR6.opus
tune=-24
</region>

<region>
hivel=42
key=C3
lovel=0
offset=7404
sample=Basstrombone_staccatissimo_PP_C3_RR6.opus
tune=-9
</region>

<region>
hivel=42
key=C2
lovel=0
offset=8227
sample=Basstrombone_staccatissimo_PP_C2_RR6.opus
tune=-17
</region>

<region>
hivel=42
key=C#3
lovel=0
offset=8750
sample=Basstrombone_staccatissimo_PP_C#3_RR6.opus
tune=-27
</region>

<region>
hivel=42
key=C#2
lovel=0
offset=8436
sample=Basstrombone_staccatissimo_PP_C#2_RR6.opus
tune=-38
</region>

<region>
hivel=42
key=B3
lovel=0
offset=8884
sample=Basstrombone_staccatissimo_PP_B3_RR6.opus
tune=-21
</region>

<region>
hivel=42
key=B2
lovel=0
offset=8678
sample=Basstrombone_staccatissimo_PP_B2_RR6.opus
tune=-21
</region>

<region>
hivel=42
key=B1
lovel=0
offset=9338
sample=Basstrombone_staccatissimo_PP_B1_RR6.opus
tune=-26
</region>

<region>
hivel=42
key=A3
lovel=0
offset=9818
sample=Basstrombone_staccatissimo_PP_A3_RR6.opus
tune=-29
</region>

<region>
hivel=42
key=A2
lovel=0
offset=8756
sample=Basstrombone_staccatissimo_PP_A2_RR6.opus
tune=-5
</region>

<region>
hivel=42
key=A1
lovel=0
offset=7865
sample=Basstrombone_staccatissimo_PP_A1_RR6.opus
tune=-12
</region>

<region>
hivel=42
key=A#3
lovel=0
offset=8814
sample=Basstrombone_staccatissimo_PP_A#3_RR6.opus
tune=-6
</region>

<region>
hivel=42
key=A#2
lovel=0
offset=9339
sample=Basstrombone_staccatissimo_PP_A#2_RR6.opus
tune=+4
</region>

<region>
hivel=42
key=A#1
lovel=0
offset=9333
sample=Basstrombone_staccatissimo_PP_A#1_RR6.opus
tune=-17
</region>

<region>
hivel=84
key=G3
lovel=43
offset=4250
sample=Basstrombone_staccatissimo_MF_G3_RR6.opus
tune=-28
</region>

<region>
hivel=84
key=G2
lovel=43
offset=6543
sample=Basstrombone_staccatissimo_MF_G2_RR6.opus
tune=-3
</region>

<region>
hivel=84
key=G1
lovel=43
offset=5581
sample=Basstrombone_staccatissimo_MF_G1_RR6.opus
tune=-26
</region>

<region>
hivel=84
key=G#3
lovel=43
offset=5784
sample=Basstrombone_staccatissimo_MF_G#3_RR6.opus
tune=-12
</region>

<region>
hivel=84
key=G#2
lovel=43
offset=5784
sample=Basstrombone_staccatissimo_MF_G#2_RR6.opus
tune=-6
</region>

<region>
hivel=84
key=G#1
lovel=43
offset=4562
sample=Basstrombone_staccatissimo_MF_G#1_RR6.opus
tune=-42
</region>

<region>
hivel=84
key=F3
lovel=43
offset=5977
sample=Basstrombone_staccatissimo_MF_F3_RR6.opus
tune=-12
</region>

<region>
hivel=84
key=F2
lovel=43
offset=4676
sample=Basstrombone_staccatissimo_MF_F2_RR6.opus
tune=-8
</region>

<region>
hivel=84
key=F1
lovel=43
offset=5328
sample=Basstrombone_staccatissimo_MF_F1_RR6.opus
tune=-4
</region>

<region>
hivel=84
key=F#3
lovel=43
offset=6218
sample=Basstrombone_staccatissimo_MF_F#3_RR6.opus
tune=-15
</region>

<region>
hivel=84
key=F#2
lovel=43
offset=5788
sample=Basstrombone_staccatissimo_MF_F#2_RR6.opus
tune=-8
</region>

<region>
hivel=84
key=F#1
lovel=43
offset=4612
sample=Basstrombone_staccatissimo_MF_F#1_RR6.opus
tune=-21
</region>

<region>
hivel=84
key=E3
lovel=43
offset=5763
sample=Basstrombone_staccatissimo_MF_E3_RR6.opus
tune=-18
</region>

<region>
hivel=84
key=E2
lovel=43
offset=4418
sample=Basstrombone_staccatissimo_MF_E2_RR6.opus
tune=-9
</region>

<region>
hikey=E1
hivel=84
lokey=A#0
lovel=43
offset=4621
pitch_keycenter=E1
sample=Basstrombone_staccatissimo_MF_E1_RR6.opus
tune=-4
</region>

<region>
hivel=84
key=D3
lovel=43
offset=1229
sample=Basstrombone_staccatissimo_MF_D3_RR6.opus
tune=-14
</region>

<region>
hivel=84
key=D2
lovel=43
offset=4421
sample=Basstrombone_staccatissimo_MF_D2_RR6.opus
tune=-15
</region>

<region>
hivel=84
key=D#3
lovel=43
offset=5692
sample=Basstrombone_staccatissimo_MF_D#3_RR6.opus
tune=-23
</region>

<region>
hivel=84
key=D#2
lovel=43
offset=6632
sample=Basstrombone_staccatissimo_MF_D#2_RR6.opus
tune=-11
</region>

<region>
hikey=D#5
hivel=84
lokey=C4
lovel=43
offset=6949
sample=Basstrombone_staccatissimo_MF_C4_RR6.opus
tune=+4
</region>

<region>
hivel=84
key=C3
lovel=43
offset=5295
sample=Basstrombone_staccatissimo_MF_C3_RR6.opus
tune=-15
</region>

<region>
hivel=84
key=C2
lovel=43
offset=4281
sample=Basstrombone_staccatissimo_MF_C2_RR6.opus
tune=-15
</region>

<region>
hivel=84
key=C#3
lovel=43
offset=6854
sample=Basstrombone_staccatissimo_MF_C#3_RR6.opus
tune=-23
</region>

<region>
hivel=84
key=C#2
lovel=43
offset=5688
sample=Basstrombone_staccatissimo_MF_C#2_RR6.opus
tune=-21
</region>

<region>
hivel=84
key=B3
lovel=43
offset=7046
sample=Basstrombone_staccatissimo_MF_B3_RR6.opus
tune=-15
</region>

<region>
hivel=84
key=B2
lovel=43
offset=5061
sample=Basstrombone_staccatissimo_MF_B2_RR6.opus
tune=-12
</region>

<region>
hivel=84
key=B1
lovel=43
offset=4140
sample=Basstrombone_staccatissimo_MF_B1_RR6.opus
tune=-36
</region>

<region>
hivel=84
key=A3
lovel=43
offset=3888
sample=Basstrombone_staccatissimo_MF_A3_RR6.opus
tune=-19
</region>

<region>
hivel=84
key=A2
lovel=43
offset=5068
sample=Basstrombone_staccatissimo_MF_A2_RR6.opus
tune=-7
</region>

<region>
hivel=84
key=A1
lovel=43
offset=4549
sample=Basstrombone_staccatissimo_MF_A1_RR6.opus
tune=-20
</region>

<region>
hivel=84
key=A#3
lovel=43
offset=6215
sample=Basstrombone_staccatissimo_MF_A#3_RR6.opus
tune=-13
</region>

<region>
hivel=84
key=A#2
lovel=43
offset=5618
sample=Basstrombone_staccatissimo_MF_A#2_RR6.opus
tune=-15
</region>

<region>
hivel=84
key=A#1
lovel=43
offset=5405
sample=Basstrombone_staccatissimo_MF_A#1_RR6.opus
tune=-23
</region>

<region>
hivel=127
key=G3
lovel=85
offset=3523
sample=Basstrombone_staccatissimo_FF_G3_RR6.opus
tune=-10
</region>

<region>
hivel=127
key=G2
lovel=85
offset=1055
sample=Basstrombone_staccatissimo_FF_G2_RR6.opus
tune=-23
</region>

<region>
hivel=127
key=G1
lovel=85
offset=3695
sample=Basstrombone_staccatissimo_FF_G1_RR6.opus
tune=-35
</region>

<region>
hivel=127
key=G#3
lovel=85
offset=2020
sample=Basstrombone_staccatissimo_FF_G#3_RR6.opus
tune=+1
</region>

<region>
hivel=127
key=G#2
lovel=85
offset=1522
sample=Basstrombone_staccatissimo_FF_G#2_RR6.opus
tune=-12
</region>

<region>
hivel=127
key=G#1
lovel=85
offset=4031
sample=Basstrombone_staccatissimo_FF_G#1_RR6.opus
tune=-15
</region>

<region>
hivel=127
key=F3
lovel=85
offset=2754
sample=Basstrombone_staccatissimo_FF_F3_RR6.opus
tune=-18
</region>

<region>
hivel=127
key=F2
lovel=85
offset=2064
sample=Basstrombone_staccatissimo_FF_F2_RR6.opus
tune=-8
</region>

<region>
hivel=127
key=F1
lovel=85
sample=Basstrombone_staccatissimo_FF_F1_RR6.opus
tune=+25
</region>

<region>
hivel=127
key=F#3
lovel=85
offset=1796
sample=Basstrombone_staccatissimo_FF_F#3_RR6.opus
tune=-16
</region>

<region>
hivel=127
key=F#2
lovel=85
offset=1499
sample=Basstrombone_staccatissimo_FF_F#2_RR6.opus
tune=-19
</region>

<region>
hivel=127
key=F#1
lovel=85
offset=1339
sample=Basstrombone_staccatissimo_FF_F#1_RR6.opus
tune=+6
</region>

<region>
hivel=127
key=E3
lovel=85
offset=1562
sample=Basstrombone_staccatissimo_FF_E3_RR6.opus
tune=-24
</region>

<region>
hivel=127
key=E2
lovel=85
offset=1482
sample=Basstrombone_staccatissimo_FF_E2_RR6.opus
tune=-22
</region>

<region>
hikey=E1
hivel=127
lokey=A#0
lovel=85
offset=2719
pitch_keycenter=E1
sample=Basstrombone_staccatissimo_FF_E1_RR6.opus
tune=-6
</region>

<region>
hivel=127
key=D3
lovel=85
offset=2287
sample=Basstrombone_staccatissimo_FF_D3_RR6.opus
tune=-12
</region>

<region>
hivel=127
key=D2
lovel=85
offset=1095
sample=Basstrombone_staccatissimo_FF_D2_RR6.opus
tune=-19
</region>

<region>
hivel=127
key=D#3
lovel=85
offset=2620
sample=Basstrombone_staccatissimo_FF_D#3_RR6.opus
tune=-26
</region>

<region>
hivel=127
key=D#2
lovel=85
offset=689
sample=Basstrombone_staccatissimo_FF_D#2_RR6.opus
tune=-8
</region>

<region>
hikey=D#5
hivel=127
lokey=C4
lovel=85
offset=1965
sample=Basstrombone_staccatissimo_FF_C4_RR6.opus
tune=-3
</region>

<region>
hivel=127
key=C3
lovel=85
offset=1119
sample=Basstrombone_staccatissimo_FF_C3_RR6.opus
tune=-13
</region>

<region>
hivel=127
key=C2
lovel=85
offset=793
sample=Basstrombone_staccatissimo_FF_C2_RR6.opus
tune=-4
</region>

<region>
hivel=127
key=C#3
lovel=85
offset=2188
sample=Basstrombone_staccatissimo_FF_C#3_RR6.opus
tune=-26
</region>

<region>
hivel=127
key=C#2
lovel=85
offset=1487
sample=Basstrombone_staccatissimo_FF_C#2_RR6.opus
tune=-24
</region>

<region>
hivel=127
key=B3
lovel=85
offset=2115
sample=Basstrombone_staccatissimo_FF_B3_RR6.opus
tune=-12
</region>

<region>
hivel=127
key=B2
lovel=85
offset=4325
sample=Basstrombone_staccatissimo_FF_B2_RR6.opus
tune=-28
</region>

<region>
hivel=127
key=B1
lovel=85
offset=1311
sample=Basstrombone_staccatissimo_FF_B1_RR6.opus
tune=-27
</region>

<region>
hivel=127
key=A3
lovel=85
offset=2762
sample=Basstrombone_staccatissimo_FF_A3_RR6.opus
tune=-20
</region>

<region>
hivel=127
key=A2
lovel=85
offset=1062
sample=Basstrombone_staccatissimo_FF_A2_RR6.opus
tune=-19
</region>

<region>
hivel=127
key=A1
lovel=85
offset=1917
sample=Basstrombone_staccatissimo_FF_A1_RR6.opus
tune=+5
</region>

<region>
hivel=127
key=A#3
lovel=85
offset=2001
sample=Basstrombone_staccatissimo_FF_A#3_RR6.opus
tune=-19
</region>

<region>
hivel=127
key=A#2
lovel=85
offset=3520
sample=Basstrombone_staccatissimo_FF_A#2_RR6.opus
tune=-18
</region>

<region>
hivel=127
key=A#1
lovel=85
offset=3142
sample=Basstrombone_staccatissimo_FF_A#1_RR6.opus
tune=-25
</region>
</group>

<group>
group_label=RR7
seq_length=8
seq_position=7

<region>
hivel=42
key=G3
lovel=0
offset=9027
sample=Basstrombone_staccatissimo_PP_G3_RR7.opus
tune=-12
</region>

<region>
hivel=42
key=G2
lovel=0
offset=7875
sample=Basstrombone_staccatissimo_PP_G2_RR7.opus
tune=-5
</region>

<region>
hivel=42
key=G1
lovel=0
offset=7003
sample=Basstrombone_staccatissimo_PP_G1_RR7.opus
tune=-17
</region>

<region>
hivel=42
key=G#3
lovel=0
offset=9304
sample=Basstrombone_staccatissimo_PP_G#3_RR7.opus
tune=-7
</region>

<region>
hivel=42
key=G#2
lovel=0
offset=6790
sample=Basstrombone_staccatissimo_PP_G#2_RR7.opus
tune=-12
</region>

<region>
hivel=42
key=G#1
lovel=0
offset=9142
sample=Basstrombone_staccatissimo_PP_G#1_RR7.opus
tune=-12
</region>

<region>
hivel=42
key=F3
lovel=0
offset=9571
sample=Basstrombone_staccatissimo_PP_F3_RR7.opus
tune=-13
</region>

<region>
hivel=42
key=F2
lovel=0
offset=9810
sample=Basstrombone_staccatissimo_PP_F2_RR7.opus
tune=+9
</region>

<region>
hivel=42
key=F1
lovel=0
offset=6752
sample=Basstrombone_staccatissimo_PP_F1_RR7.opus
tune=+35
</region>

<region>
hivel=42
key=F#3
lovel=0
offset=9996
sample=Basstrombone_staccatissimo_PP_F#3_RR7.opus
tune=-18
</region>

<region>
hivel=42
key=F#2
lovel=0
offset=8863
sample=Basstrombone_staccatissimo_PP_F#2_RR7.opus
tune=+2
</region>

<region>
hivel=42
key=F#1
lovel=0
offset=8886
sample=Basstrombone_staccatissimo_PP_F#1_RR7.opus
tune=-27
</region>

<region>
hivel=42
key=E3
lovel=0
offset=8913
sample=Basstrombone_staccatissimo_PP_E3_RR7.opus
tune=-17
</region>

<region>
hivel=42
key=E2
lovel=0
offset=8116
sample=Basstrombone_staccatissimo_PP_E2_RR7.opus
tune=+9
</region>

<region>
hikey=E1
hivel=42
lokey=A#0
lovel=0
offset=6662
pitch_keycenter=E1
sample=Basstrombone_staccatissimo_PP_E1_RR7.opus
tune=+13
</region>

<region>
hivel=42
key=D3
lovel=0
offset=9756
sample=Basstrombone_staccatissimo_PP_D3_RR7.opus
tune=-18
</region>

<region>
hivel=42
key=D2
lovel=0
offset=8709
sample=Basstrombone_staccatissimo_PP_D2_RR7.opus
tune=-4
</region>

<region>
hivel=42
key=D#3
lovel=0
offset=8222
sample=Basstrombone_staccatissimo_PP_D#3_RR7.opus
tune=-27
</region>

<region>
hivel=42
key=D#2
lovel=0
offset=12254
sample=Basstrombone_staccatissimo_PP_D#2_RR7.opus
tune=+11
</region>

<region>
hikey=D#5
hivel=42
lokey=C4
lovel=0
offset=8611
sample=Basstrombone_staccatissimo_PP_C4_RR7.opus
tune=-19
</region>

<region>
hivel=42
key=C3
lovel=0
offset=7673
sample=Basstrombone_staccatissimo_PP_C3_RR7.opus
tune=-19
</region>

<region>
hivel=42
key=C2
lovel=0
offset=7840
sample=Basstrombone_staccatissimo_PP_C2_RR7.opus
tune=-7
</region>

<region>
hivel=42
key=C#3
lovel=0
offset=9617
sample=Basstrombone_staccatissimo_PP_C#3_RR7.opus
tune=-11
</region>

<region>
hivel=42
key=C#2
lovel=0
offset=7802
sample=Basstrombone_staccatissimo_PP_C#2_RR7.opus
tune=-29
</region>

<region>
hivel=42
key=B3
lovel=0
offset=7921
sample=Basstrombone_staccatissimo_PP_B3_RR7.opus
tune=-25
</region>

<region>
hivel=42
key=B2
lovel=0
offset=9062
sample=Basstrombone_staccatissimo_PP_B2_RR7.opus
tune=-11
</region>

<region>
hivel=42
key=B1
lovel=0
offset=10416
sample=Basstrombone_staccatissimo_PP_B1_RR7.opus
tune=-22
</region>

<region>
hivel=42
key=A3
lovel=0
offset=10253
sample=Basstrombone_staccatissimo_PP_A3_RR7.opus
tune=-16
</region>

<region>
hivel=42
key=A2
lovel=0
offset=8158
sample=Basstrombone_staccatissimo_PP_A2_RR7.opus
tune=-11
</region>

<region>
hivel=42
key=A1
lovel=0
offset=6992
sample=Basstrombone_staccatissimo_PP_A1_RR7.opus
tune=-8
</region>

<region>
hivel=42
key=A#3
lovel=0
offset=9913
sample=Basstrombone_staccatissimo_PP_A#3_RR7.opus
tune=-9
</region>

<region>
hivel=42
key=A#2
lovel=0
offset=9925
sample=Basstrombone_staccatissimo_PP_A#2_RR7.opus
tune=-10
</region>

<region>
hivel=42
key=A#1
lovel=0
offset=7256
sample=Basstrombone_staccatissimo_PP_A#1_RR7.opus
tune=-16
</region>

<region>
hivel=84
key=G3
lovel=43
offset=5818
sample=Basstrombone_staccatissimo_MF_G3_RR7.opus
tune=-26
</region>

<region>
hivel=84
key=G2
lovel=43
offset=6141
sample=Basstrombone_staccatissimo_MF_G2_RR7.opus
tune=-7
</region>

<region>
hivel=84
key=G1
lovel=43
offset=6125
sample=Basstrombone_staccatissimo_MF_G1_RR7.opus
tune=-22
</region>

<region>
hivel=84
key=G#3
lovel=43
offset=5959
sample=Basstrombone_staccatissimo_MF_G#3_RR7.opus
</region>

<region>
hivel=84
key=G#2
lovel=43
offset=4780
sample=Basstrombone_staccatissimo_MF_G#2_RR7.opus
tune=-16
</region>

<region>
hivel=84
key=G#1
lovel=43
offset=6068
sample=Basstrombone_staccatissimo_MF_G#1_RR7.opus
tune=-34
</region>

<region>
hivel=84
key=F3
lovel=43
offset=6484
sample=Basstrombone_staccatissimo_MF_F3_RR7.opus
tune=-13
</region>

<region>
hivel=84
key=F2
lovel=43
offset=4571
sample=Basstrombone_staccatissimo_MF_F2_RR7.opus
tune=+3
</region>

<region>
hivel=84
key=F1
lovel=43
offset=5177
sample=Basstrombone_staccatissimo_MF_F1_RR7.opus
tune=-7
</region>

<region>
hivel=84
key=F#3
lovel=43
offset=8008
sample=Basstrombone_staccatissimo_MF_F#3_RR7.opus
tune=-15
</region>

<region>
hivel=84
key=F#2
lovel=43
offset=4326
sample=Basstrombone_staccatissimo_MF_F#2_RR7.opus
tune=-5
</region>

<region>
hivel=84
key=F#1
lovel=43
offset=6285
sample=Basstrombone_staccatissimo_MF_F#1_RR7.opus
tune=-34
</region>

<region>
hivel=84
key=E3
lovel=43
offset=6058
sample=Basstrombone_staccatissimo_MF_E3_RR7.opus
tune=-23
</region>

<region>
hivel=84
key=E2
lovel=43
offset=5133
sample=Basstrombone_staccatissimo_MF_E2_RR7.opus
tune=-10
</region>

<region>
hikey=E1
hivel=84
lokey=A#0
lovel=43
offset=2745
pitch_keycenter=E1
sample=Basstrombone_staccatissimo_MF_E1_RR7.opus
tune=-29
</region>

<region>
hivel=84
key=D3
lovel=43
offset=365
sample=Basstrombone_staccatissimo_MF_D3_RR7.opus
</region>

<region>
hivel=84
key=D2
lovel=43
offset=3917
sample=Basstrombone_staccatissimo_MF_D2_RR7.opus
tune=-16
</region>

<region>
hivel=84
key=D#3
lovel=43
offset=5888
sample=Basstrombone_staccatissimo_MF_D#3_RR7.opus
tune=-26
</region>

<region>
hivel=84
key=D#2
lovel=43
offset=6996
sample=Basstrombone_staccatissimo_MF_D#2_RR7.opus
tune=-8
</region>

<region>
hikey=D#5
hivel=84
lokey=C4
lovel=43
offset=8204
sample=Basstrombone_staccatissimo_MF_C4_RR7.opus
tune=+2
</region>

<region>
hivel=84
key=C3
lovel=43
offset=6029
sample=Basstrombone_staccatissimo_MF_C3_RR7.opus
tune=-2
</region>

<region>
hivel=84
key=C2
lovel=43
offset=3857
sample=Basstrombone_staccatissimo_MF_C2_RR7.opus
tune=-7
</region>

<region>
hivel=84
key=C#3
lovel=43
offset=6758
sample=Basstrombone_staccatissimo_MF_C#3_RR7.opus
tune=-21
</region>

<region>
hivel=84
key=C#2
lovel=43
offset=4497
sample=Basstrombone_staccatissimo_MF_C#2_RR7.opus
tune=-25
</region>

<region>
hivel=84
key=B3
lovel=43
offset=5751
sample=Basstrombone_staccatissimo_MF_B3_RR7.opus
tune=-17
</region>

<region>
hivel=84
key=B2
lovel=43
offset=5604
sample=Basstrombone_staccatissimo_MF_B2_RR7.opus
tune=-19
</region>

<region>
hivel=84
key=B1
lovel=43
offset=5561
sample=Basstrombone_staccatissimo_MF_B1_RR7.opus
tune=-35
</region>

<region>
hivel=84
key=A3
lovel=43
offset=4066
sample=Basstrombone_staccatissimo_MF_A3_RR7.opus
tune=-19
</region>

<region>
hivel=84
key=A2
lovel=43
offset=5065
sample=Basstrombone_staccatissimo_MF_A2_RR7.opus
tune=-8
</region>

<region>
hivel=84
key=A1
lovel=43
offset=6418
sample=Basstrombone_staccatissimo_MF_A1_RR7.opus
tune=-10
</region>

<region>
hivel=84
key=A#3
lovel=43
offset=6019
sample=Basstrombone_staccatissimo_MF_A#3_RR7.opus
tune=-19
</region>

<region>
hivel=84
key=A#2
lovel=43
offset=5097
sample=Basstrombone_staccatissimo_MF_A#2_RR7.opus
tune=+8
</region>

<region>
hivel=84
key=A#1
lovel=43
offset=3872
sample=Basstrombone_staccatissimo_MF_A#1_RR7.opus
tune=-23
</region>

<region>
hivel=127
key=G3
lovel=85
offset=2920
sample=Basstrombone_staccatissimo_FF_G3_RR7.opus
tune=-10
</region>

<region>
hivel=127
key=G2
lovel=85
offset=1248
sample=Basstrombone_staccatissimo_FF_G2_RR7.opus
tune=-34
</region>

<region>
hivel=127
key=G1
lovel=85
offset=2931
sample=Basstrombone_staccatissimo_FF_G1_RR7.opus
tune=-21
</region>

<region>
hivel=127
key=G#3
lovel=85
offset=1667
sample=Basstrombone_staccatissimo_FF_G#3_RR7.opus
tune=-17
</region>

<region>
hivel=127
key=G#2
lovel=85
offset=1858
sample=Basstrombone_staccatissimo_FF_G#2_RR7.opus
tune=-15
</region>

<region>
hivel=127
key=G#1
lovel=85
offset=3937
sample=Basstrombone_staccatissimo_FF_G#1_RR7.opus
</region>

<region>
hivel=127
key=F3
lovel=85
offset=1800
sample=Basstrombone_staccatissimo_FF_F3_RR7.opus
tune=-20
</region>

<region>
hivel=127
key=F2
lovel=85
offset=2885
sample=Basstrombone_staccatissimo_FF_F2_RR7.opus
tune=-17
</region>

<region>
hivel=127
key=F1
lovel=85
offset=87
sample=Basstrombone_staccatissimo_FF_F1_RR7.opus
tune=-2
</region>

<region>
hivel=127
key=F#3
lovel=85
offset=1273
sample=Basstrombone_staccatissimo_FF_F#3_RR7.opus
tune=-1
</region>

<region>
hivel=127
key=F#2
lovel=85
offset=1523
sample=Basstrombone_staccatissimo_FF_F#2_RR7.opus
tune=-22
</region>

<region>
hivel=127
key=F#1
lovel=85
offset=1693
sample=Basstrombone_staccatissimo_FF_F#1_RR7.opus
tune=-27
</region>

<region>
hivel=127
key=E3
lovel=85
offset=3177
sample=Basstrombone_staccatissimo_FF_E3_RR7.opus
tune=-16
</region>

<region>
hivel=127
key=E2
lovel=85
offset=2487
sample=Basstrombone_staccatissimo_FF_E2_RR7.opus
tune=-26
</region>

<region>
hikey=E1
hivel=127
lokey=A#0
lovel=85
offset=1905
pitch_keycenter=E1
sample=Basstrombone_staccatissimo_FF_E1_RR7.opus
tune=-39
</region>

<region>
hivel=127
key=D3
lovel=85
offset=1463
sample=Basstrombone_staccatissimo_FF_D3_RR7.opus
tune=-16
</region>

<region>
hivel=127
key=D2
lovel=85
offset=935
sample=Basstrombone_staccatissimo_FF_D2_RR7.opus
tune=-24
</region>

<region>
hivel=127
key=D#3
lovel=85
offset=3303
sample=Basstrombone_staccatissimo_FF_D#3_RR7.opus
tune=-19
</region>

<region>
hivel=127
key=D#2
lovel=85
offset=2254
sample=Basstrombone_staccatissimo_FF_D#2_RR7.opus
tune=-8
</region>

<region>
hikey=D#5
hivel=127
lokey=C4
lovel=85
offset=2263
sample=Basstrombone_staccatissimo_FF_C4_RR7.opus
tune=-5
</region>

<region>
hivel=127
key=C3
lovel=85
offset=1287
sample=Basstrombone_staccatissimo_FF_C3_RR7.opus
tune=-1
</region>

<region>
hivel=127
key=C2
lovel=85
offset=794
sample=Basstrombone_staccatissimo_FF_C2_RR7.opus
tune=-15
</region>

<region>
hivel=127
key=C#3
lovel=85
offset=2180
sample=Basstrombone_staccatissimo_FF_C#3_RR7.opus
tune=-29
</region>

<region>
hivel=127
key=C#2
lovel=85
offset=1760
sample=Basstrombone_staccatissimo_FF_C#2_RR7.opus
tune=-18
</region>

<region>
hivel=127
key=B3
lovel=85
offset=2477
sample=Basstrombone_staccatissimo_FF_B3_RR7.opus
tune=-13
</region>

<region>
hivel=127
key=B2
lovel=85
offset=3852
sample=Basstrombone_staccatissimo_FF_B2_RR7.opus
tune=-10
</region>

<region>
hivel=127
key=B1
lovel=85
offset=2193
sample=Basstrombone_staccatissimo_FF_B1_RR7.opus
tune=-36
</region>

<region>
hivel=127
key=A3
lovel=85
offset=2681
sample=Basstrombone_staccatissimo_FF_A3_RR7.opus
tune=-17
</region>

<region>
hivel=127
key=A2
lovel=85
offset=344
sample=Basstrombone_staccatissimo_FF_A2_RR7.opus
tune=-20
</region>

<region>
hivel=127
key=A1
lovel=85
offset=3096
sample=Basstrombone_staccatissimo_FF_A1_RR7.opus
tune=-16
</region>

<region>
hivel=127
key=A#3
lovel=85
offset=2603
sample=Basstrombone_staccatissimo_FF_A#3_RR7.opus
tune=-12
</region>

<region>
hivel=127
key=A#2
lovel=85
offset=4032
sample=Basstrombone_staccatissimo_FF_A#2_RR7.opus
tune=-13
</region>

<region>
hivel=127
key=A#1
lovel=85
offset=2406
sample=Basstrombone_staccatissimo_FF_A#1_RR7.opus
tune=-10
</region>
</group>

<group>
group_label=RR8
seq_length=8
seq_position=8

<region>
hivel=42
key=G3
lovel=0
offset=9954
sample=Basstrombone_staccatissimo_PP_G3_RR8.opus
tune=-24
</region>

<region>
hivel=42
key=G2
lovel=0
offset=7716
sample=Basstrombone_staccatissimo_PP_G2_RR8.opus
tune=-18
</region>

<region>
hivel=42
key=G1
lovel=0
offset=9444
sample=Basstrombone_staccatissimo_PP_G1_RR8.opus
tune=-32
</region>

<region>
hivel=42
key=G#3
lovel=0
offset=8876
sample=Basstrombone_staccatissimo_PP_G#3_RR8.opus
tune=-12
</region>

<region>
hivel=42
key=G#2
lovel=0
offset=9693
sample=Basstrombone_staccatissimo_PP_G#2_RR8.opus
tune=-16
</region>

<region>
hivel=42
key=G#1
lovel=0
offset=9075
sample=Basstrombone_staccatissimo_PP_G#1_RR8.opus
tune=+3
</region>

<region>
hivel=42
key=F3
lovel=0
offset=8297
sample=Basstrombone_staccatissimo_PP_F3_RR8.opus
tune=-13
</region>

<region>
hivel=42
key=F2
lovel=0
offset=9625
sample=Basstrombone_staccatissimo_PP_F2_RR8.opus
tune=+5
</region>

<region>
hivel=42
key=F1
lovel=0
offset=6963
sample=Basstrombone_staccatissimo_PP_F1_RR8.opus
tune=+40
</region>

<region>
hivel=42
key=F#3
lovel=0
offset=10516
sample=Basstrombone_staccatissimo_PP_F#3_RR8.opus
tune=-17
</region>

<region>
hivel=42
key=F#2
lovel=0
offset=8420
sample=Basstrombone_staccatissimo_PP_F#2_RR8.opus
tune=-13
</region>

<region>
hivel=42
key=F#1
lovel=0
offset=8295
sample=Basstrombone_staccatissimo_PP_F#1_RR8.opus
tune=-3
</region>

<region>
hivel=42
key=E3
lovel=0
offset=8924
sample=Basstrombone_staccatissimo_PP_E3_RR8.opus
tune=-14
</region>

<region>
hivel=42
key=E2
lovel=0
offset=8666
sample=Basstrombone_staccatissimo_PP_E2_RR8.opus
tune=+2
</region>

<region>
hikey=E1
hivel=42
lokey=A#0
lovel=0
offset=6978
pitch_keycenter=E1
sample=Basstrombone_staccatissimo_PP_E1_RR8.opus
tune=+12
</region>

<region>
hivel=42
key=D3
lovel=0
offset=7537
sample=Basstrombone_staccatissimo_PP_D3_RR8.opus
tune=-23
</region>

<region>
hivel=42
key=D2
lovel=0
offset=7678
sample=Basstrombone_staccatissimo_PP_D2_RR8.opus
tune=-8
</region>

<region>
hivel=42
key=D#3
lovel=0
offset=9762
sample=Basstrombone_staccatissimo_PP_D#3_RR8.opus
tune=-14
</region>

<region>
hivel=42
key=D#2
lovel=0
offset=11201
sample=Basstrombone_staccatissimo_PP_D#2_RR8.opus
tune=+10
</region>

<region>
hikey=D#5
hivel=42
lokey=C4
lovel=0
offset=7881
sample=Basstrombone_staccatissimo_PP_C4_RR8.opus
tune=-27
</region>

<region>
hivel=42
key=C3
lovel=0
offset=7961
sample=Basstrombone_staccatissimo_PP_C3_RR8.opus
tune=-13
</region>

<region>
hivel=42
key=C2
lovel=0
offset=6564
sample=Basstrombone_staccatissimo_PP_C2_RR8.opus
tune=-13
</region>

<region>
hivel=42
key=C#3
lovel=0
offset=10440
sample=Basstrombone_staccatissimo_PP_C#3_RR8.opus
tune=-22
</region>

<region>
hivel=42
key=C#2
lovel=0
offset=9774
sample=Basstrombone_staccatissimo_PP_C#2_RR8.opus
tune=-26
</region>

<region>
hivel=42
key=B3
lovel=0
offset=8533
sample=Basstrombone_staccatissimo_PP_B3_RR8.opus
tune=-21
</region>

<region>
hivel=42
key=B2
lovel=0
offset=7804
sample=Basstrombone_staccatissimo_PP_B2_RR8.opus
tune=-20
</region>

<region>
hivel=42
key=B1
lovel=0
offset=9334
sample=Basstrombone_staccatissimo_PP_B1_RR8.opus
tune=-13
</region>

<region>
hivel=42
key=A3
lovel=0
offset=8130
sample=Basstrombone_staccatissimo_PP_A3_RR8.opus
tune=-17
</region>

<region>
hivel=42
key=A2
lovel=0
offset=9410
sample=Basstrombone_staccatissimo_PP_A2_RR8.opus
tune=-8
</region>

<region>
hivel=42
key=A1
lovel=0
offset=7882
sample=Basstrombone_staccatissimo_PP_A1_RR8.opus
tune=-13
</region>

<region>
hivel=42
key=A#3
lovel=0
offset=9463
sample=Basstrombone_staccatissimo_PP_A#3_RR8.opus
tune=-14
</region>

<region>
hivel=42
key=A#2
lovel=0
offset=9843
sample=Basstrombone_staccatissimo_PP_A#2_RR8.opus
tune=+2
</region>

<region>
hivel=42
key=A#1
lovel=0
offset=7373
sample=Basstrombone_staccatissimo_PP_A#1_RR8.opus
tune=-9
</region>

<region>
hivel=84
key=G3
lovel=43
offset=4042
sample=Basstrombone_staccatissimo_MF_G3_RR8.opus
tune=-21
</region>

<region>
hivel=84
key=G2
lovel=43
offset=4375
sample=Basstrombone_staccatissimo_MF_G2_RR8.opus
tune=-16
</region>

<region>
hivel=84
key=G1
lovel=43
offset=6087
sample=Basstrombone_staccatissimo_MF_G1_RR8.opus
tune=-29
</region>

<region>
hivel=84
key=G#3
lovel=43
offset=4461
sample=Basstrombone_staccatissimo_MF_G#3_RR8.opus
tune=-4
</region>

<region>
hivel=84
key=G#2
lovel=43
offset=6394
sample=Basstrombone_staccatissimo_MF_G#2_RR8.opus
tune=-7
</region>

<region>
hivel=84
key=G#1
lovel=43
offset=5707
sample=Basstrombone_staccatissimo_MF_G#1_RR8.opus
tune=-19
</region>

<region>
hivel=84
key=F3
lovel=43
offset=6272
sample=Basstrombone_staccatissimo_MF_F3_RR8.opus
tune=-9
</region>

<region>
hivel=84
key=F2
lovel=43
offset=4983
sample=Basstrombone_staccatissimo_MF_F2_RR8.opus
tune=+12
</region>

<region>
hivel=84
key=F1
lovel=43
offset=4252
sample=Basstrombone_staccatissimo_MF_F1_RR8.opus
tune=-9
</region>

<region>
hivel=84
key=F#3
lovel=43
offset=7809
sample=Basstrombone_staccatissimo_MF_F#3_RR8.opus
tune=-18
</region>

<region>
hivel=84
key=F#2
lovel=43
offset=3860
sample=Basstrombone_staccatissimo_MF_F#2_RR8.opus
tune=-19
</region>

<region>
hivel=84
key=F#1
lovel=43
offset=5149
sample=Basstrombone_staccatissimo_MF_F#1_RR8.opus
tune=-37
</region>

<region>
hivel=84
key=E3
lovel=43
offset=5846
sample=Basstrombone_staccatissimo_MF_E3_RR8.opus
tune=-7
</region>

<region>
hivel=84
key=E2
lovel=43
offset=4051
sample=Basstrombone_staccatissimo_MF_E2_RR8.opus
tune=-7
</region>

<region>
hikey=E1
hivel=84
lokey=A#0
lovel=43
offset=2082
pitch_keycenter=E1
sample=Basstrombone_staccatissimo_MF_E1_RR8.opus
tune=-39
</region>

<region>
hivel=84
key=D3
lovel=43
offset=237
sample=Basstrombone_staccatissimo_MF_D3_RR8.opus
tune=-17
</region>

<region>
hivel=84
key=D2
lovel=43
offset=3084
sample=Basstrombone_staccatissimo_MF_D2_RR8.opus
tune=-15
</region>

<region>
hivel=84
key=D#3
lovel=43
offset=7492
sample=Basstrombone_staccatissimo_MF_D#3_RR8.opus
tune=-22
</region>

<region>
hivel=84
key=D#2
lovel=43
offset=3857
sample=Basstrombone_staccatissimo_MF_D#2_RR8.opus
tune=-5
</region>

<region>
hikey=D#5
hivel=84
lokey=C4
lovel=43
offset=6672
sample=Basstrombone_staccatissimo_MF_C4_RR8.opus
tune=-6
</region>

<region>
hivel=84
key=C3
lovel=43
offset=4030
sample=Basstrombone_staccatissimo_MF_C3_RR8.opus
tune=-12
</region>

<region>
hivel=84
key=C2
lovel=43
offset=4327
sample=Basstrombone_staccatissimo_MF_C2_RR8.opus
tune=-11
</region>

<region>
hivel=84
key=C#3
lovel=43
offset=6828
sample=Basstrombone_staccatissimo_MF_C#3_RR8.opus
tune=-18
</region>

<region>
hivel=84
key=C#2
lovel=43
offset=4055
sample=Basstrombone_staccatissimo_MF_C#2_RR8.opus
tune=-17
</region>

<region>
hivel=84
key=B3
lovel=43
offset=5857
sample=Basstrombone_staccatissimo_MF_B3_RR8.opus
tune=-21
</region>

<region>
hivel=84
key=B2
lovel=43
offset=5789
sample=Basstrombone_staccatissimo_MF_B2_RR8.opus
tune=-12
</region>

<region>
hivel=84
key=B1
lovel=43
offset=6397
sample=Basstrombone_staccatissimo_MF_B1_RR8.opus
tune=-11
</region>

<region>
hivel=84
key=A3
lovel=43
offset=5072
sample=Basstrombone_staccatissimo_MF_A3_RR8.opus
tune=-9
</region>

<region>
hivel=84
key=A2
lovel=43
offset=5712
sample=Basstrombone_staccatissimo_MF_A2_RR8.opus
tune=-23
</region>

<region>
hivel=84
key=A1
lovel=43
offset=4985
sample=Basstrombone_staccatissimo_MF_A1_RR8.opus
tune=-38
</region>

<region>
hivel=84
key=A#3
lovel=43
offset=5969
sample=Basstrombone_staccatissimo_MF_A#3_RR8.opus
tune=-22
</region>

<region>
hivel=84
key=A#2
lovel=43
offset=5151
sample=Basstrombone_staccatissimo_MF_A#2_RR8.opus
tune=-21
</region>

<region>
hivel=84
key=A#1
lovel=43
offset=5312
sample=Basstrombone_staccatissimo_MF_A#1_RR8.opus
tune=-12
</region>

<region>
hivel=127
key=G3
lovel=85
offset=2175
sample=Basstrombone_staccatissimo_FF_G3_RR8.opus
tune=-18
</region>

<region>
hivel=127
key=G2
lovel=85
offset=1210
sample=Basstrombone_staccatissimo_FF_G2_RR8.opus
tune=-18
</region>

<region>
hivel=127
key=G1
lovel=85
offset=2563
sample=Basstrombone_staccatissimo_FF_G1_RR8.opus
tune=-4
</region>

<region>
hivel=127
key=G#3
lovel=85
offset=1863
sample=Basstrombone_staccatissimo_FF_G#3_RR8.opus
tune=-5
</region>

<region>
hivel=127
key=G#2
lovel=85
offset=789
sample=Basstrombone_staccatissimo_FF_G#2_RR8.opus
tune=-13
</region>

<region>
hivel=127
key=G#1
lovel=85
offset=1963
sample=Basstrombone_staccatissimo_FF_G#1_RR8.opus
tune=-28
</region>

<region>
hivel=127
key=F3
lovel=85
offset=3541
sample=Basstrombone_staccatissimo_FF_F3_RR8.opus
tune=-14
</region>

<region>
hivel=127
key=F2
lovel=85
offset=3006
sample=Basstrombone_staccatissimo_FF_F2_RR8.opus
tune=-12
</region>

<region>
hivel=127
key=F1
lovel=85
sample=Basstrombone_staccatissimo_FF_F1_RR8.opus
tune=-1
</region>

<region>
hivel=127
key=F#3
lovel=85
offset=2043
sample=Basstrombone_staccatissimo_FF_F#3_RR8.opus
tune=-15
</region>

<region>
hivel=127
key=F#2
lovel=85
offset=1533
sample=Basstrombone_staccatissimo_FF_F#2_RR8.opus
tune=-23
</region>

<region>
hivel=127
key=F#1
lovel=85
offset=1418
sample=Basstrombone_staccatissimo_FF_F#1_RR8.opus
tune=-30
</region>

<region>
hivel=127
key=E3
lovel=85
offset=4465
sample=Basstrombone_staccatissimo_FF_E3_RR8.opus
tune=-27
</region>

<region>
hivel=127
key=E2
lovel=85
offset=1369
sample=Basstrombone_staccatissimo_FF_E2_RR8.opus
tune=-31
</region>

<region>
hikey=E1
hivel=127
lokey=A#0
lovel=85
offset=1265
pitch_keycenter=E1
sample=Basstrombone_staccatissimo_FF_E1_RR8.opus
tune=-2
</region>

<region>
hivel=127
key=D3
lovel=85
offset=2461
sample=Basstrombone_staccatissimo_FF_D3_RR8.opus
tune=+9
</region>

<region>
hivel=127
key=D2
lovel=85
offset=1193
sample=Basstrombone_staccatissimo_FF_D2_RR8.opus
tune=-21
</region>

<region>
hivel=127
key=D#3
lovel=85
offset=3364
sample=Basstrombone_staccatissimo_FF_D#3_RR8.opus
tune=-27
</region>

<region>
hivel=127
key=D#2
lovel=85
offset=2496
sample=Basstrombone_staccatissimo_FF_D#2_RR8.opus
tune=-6
</region>

<region>
hikey=D#5
hivel=127
lokey=C4
lovel=85
offset=4961
sample=Basstrombone_staccatissimo_FF_C4_RR8.opus
tune=-5
</region>

<region>
hivel=127
key=C3
lovel=85
offset=42
sample=Basstrombone_staccatissimo_FF_C3_RR8.opus
tune=-17
</region>

<region>
hivel=127
key=C2
lovel=85
offset=1693
sample=Basstrombone_staccatissimo_FF_C2_RR8.opus
tune=-17
</region>

<region>
hivel=127
key=C#3
lovel=85
offset=3561
sample=Basstrombone_staccatissimo_FF_C#3_RR8.opus
tune=-24
</region>

<region>
hivel=127
key=C#2
lovel=85
offset=1893
sample=Basstrombone_staccatissimo_FF_C#2_RR8.opus
tune=-22
</region>

<region>
hivel=127
key=B3
lovel=85
offset=1309
sample=Basstrombone_staccatissimo_FF_B3_RR8.opus
tune=-8
</region>

<region>
hivel=127
key=B2
lovel=85
offset=3291
sample=Basstrombone_staccatissimo_FF_B2_RR8.opus
tune=-25
</region>

<region>
hivel=127
key=B1
lovel=85
offset=1804
sample=Basstrombone_staccatissimo_FF_B1_RR8.opus
tune=-34
</region>

<region>
hivel=127
key=A3
lovel=85
offset=3817
sample=Basstrombone_staccatissimo_FF_A3_RR8.opus
tune=-16
</region>

<region>
hivel=127
key=A2
lovel=85
offset=677
sample=Basstrombone_staccatissimo_FF_A2_RR8.opus
tune=-28
</region>

<region>
hivel=127
key=A1
lovel=85
offset=2982
sample=Basstrombone_staccatissimo_FF_A1_RR8.opus
tune=-25
</region>

<region>
hivel=127
key=A#3
lovel=85
offset=2531
sample=Basstrombone_staccatissimo_FF_A#3_RR8.opus
tune=-12
</region>

<region>
hivel=127
key=A#2
lovel=85
offset=3938
sample=Basstrombone_staccatissimo_FF_A#2_RR8.opus
tune=-19
</region>

<region>
hivel=127
key=A#1
lovel=85
offset=2549
sample=Basstrombone_staccatissimo_FF_A#1_RR8.opus
tune=-12
</region>
</group>